Preview_AmstlevarItalicNon-Brokn -wght_900.00_wdth_125.00_opsz_144.00.ufo
<glyph name="quotedbl" format="2">
  <advance width="1014"/>
  <unicode hex="0022"/>
  <outline>
    <contour>
      <point x="202.0" y="934.0" type="line"/>
      <point x="207.0" y="1373.0" type="line" smooth="yes"/>
      <point x="209.0" y="1452.0"/>
      <point x="305.0" y="1558.0"/>
      <point x="393.0" y="1558.0" type="qcurve" smooth="yes"/>
      <point x="476.0" y="1558.0"/>
      <point x="553.0" y="1426.0"/>
      <point x="512.0" y="1358.0" type="qcurve" smooth="yes"/>
      <point x="267.0" y="934.0" type="line"/>
    </contour>
    <contour>
      <point x="622.0" y="934.0" type="line"/>
      <point x="627.0" y="1373.0" type="line" smooth="yes"/>
      <point x="629.0" y="1452.0"/>
      <point x="725.0" y="1558.0"/>
      <point x="813.0" y="1558.0" type="qcurve" smooth="yes"/>
      <point x="895.0" y="1558.0"/>
      <point x="973.0" y="1426.0"/>
      <point x="932.0" y="1358.0" type="qcurve" smooth="yes"/>
      <point x="687.0" y="934.0" type="line"/>
    </contour>
  </outline>
</glyph>
<glyph name="dollar" format="2">
  <advance width="1050"/>
  <unicode hex="0024"/>
  <outline>
    <contour>
      <point x="-237.0" y="237.0" type="qcurve"/>
      <point x="-131.0" y="287.0" type="line"/>
      <point x="-106.0" y="214.0"/>
      <point x="44.0" y="87.0"/>
      <point x="236.0" y="87.0" type="qcurve" smooth="yes"/>
      <point x="456.0" y="87.0"/>
      <point x="697.0" y="230.0"/>
      <point x="711.0" y="361.0" type="qcurve" smooth="yes"/>
      <point x="728.0" y="489.0"/>
      <point x="510.0" y="591.0"/>
      <point x="327.0" y="626.0" type="qcurve" smooth="yes"/>
      <point x="87.0" y="685.0"/>
      <point x="-118.0" y="940.0"/>
      <point x="-94.0" y="1105.0" type="qcurve" smooth="yes"/>
      <point x="-68.0" y="1287.0"/>
      <point x="215.0" y="1500.0"/>
      <point x="547.0" y="1500.0" type="qcurve" smooth="yes"/>
      <point x="806.0" y="1500.0"/>
      <point x="983.0" y="1403.0"/>
      <point x="1025.0" y="1336.0" type="qcurve"/>
      <point x="950.0" y="1286.0" type="line"/>
      <point x="908.0" y="1331.0"/>
      <point x="666.0" y="1415.0"/>
      <point x="514.0" y="1415.0" type="qcurve" smooth="yes"/>
      <point x="315.0" y="1415.0"/>
      <point x="183.0" y="1322.0"/>
      <point x="172.0" y="1243.0" type="qcurve" smooth="yes"/>
      <point x="159.0" y="1141.0"/>
      <point x="295.0" y="967.0"/>
      <point x="521.0" y="927.0" type="qcurve" smooth="yes"/>
      <point x="760.0" y="875.0"/>
      <point x="1034.0" y="648.0"/>
      <point x="1012.0" y="475.0" type="qcurve" smooth="yes"/>
      <point x="987.0" y="228.0"/>
      <point x="518.0" y="9.0"/>
      <point x="245.0" y="9.0" type="qcurve" smooth="yes"/>
      <point x="59.0" y="9.0"/>
      <point x="-186.0" y="123.0"/>
    </contour>
    <contour>
      <point x="271.0" y="-155.0" type="line"/>
      <point x="305.0" y="19.0" type="line"/>
      <point x="306.0" y="19.0" type="line"/>
      <point x="446.0" y="804.0" type="line"/>
      <point x="491.0" y="774.0" type="line"/>
      <point x="357.0" y="19.0" type="line"/>
      <point x="361.0" y="19.0" type="line"/>
      <point x="329.0" y="-142.0" type="line"/>
    </contour>
    <contour>
      <point x="588.0" y="1581.0" type="line"/>
      <point x="644.0" y="1590.0" type="line"/>
      <point x="615.0" y="1442.0" type="line"/>
      <point x="612.0" y="1442.0" type="line"/>
      <point x="492.0" y="786.0" type="line"/>
      <point x="447.0" y="817.0" type="line"/>
      <point x="561.0" y="1442.0" type="line"/>
      <point x="560.0" y="1442.0" type="line"/>
    </contour>
  </outline>
</glyph>
<glyph name="quotesingle" format="2">
  <advance width="583"/>
  <unicode hex="0027"/>
  <outline>
    <contour>
      <point x="212.0" y="934.0" type="line"/>
      <point x="227.0" y="1383.0" type="line" smooth="yes"/>
      <point x="230.0" y="1462.0"/>
      <point x="315.0" y="1558.0"/>
      <point x="403.0" y="1558.0" type="qcurve" smooth="yes"/>
      <point x="486.0" y="1558.0"/>
      <point x="552.0" y="1437.0"/>
      <point x="512.0" y="1368.0" type="qcurve" smooth="yes"/>
      <point x="277.0" y="934.0" type="line"/>
    </contour>
  </outline>
</glyph>
<glyph name="parenright" format="2">
  <advance width="905"/>
  <unicode hex="0029"/>
  <outline>
    <contour>
      <point x="692.0" y="675.0" type="qcurve" smooth="yes"/>
      <point x="657.0" y="418.0"/>
      <point x="140.0" y="-57.0"/>
      <point x="-163.0" y="-161.0" type="qcurve"/>
      <point x="-228.0" y="-128.0" type="line"/>
      <point x="-66.0" y="-7.0"/>
      <point x="188.0" y="411.0"/>
      <point x="230.0" y="672.0" type="qcurve" smooth="yes"/>
      <point x="272.0" y="932.0"/>
      <point x="192.0" y="1350.0"/>
      <point x="65.0" y="1471.0" type="qcurve"/>
      <point x="136.0" y="1516.0" type="line"/>
      <point x="408.0" y="1400.0"/>
      <point x="730.0" y="954.0"/>
    </contour>
  </outline>
</glyph>
<glyph name="B" format="2">
  <advance width="1932"/>
  <unicode hex="0042"/>
  <outline>
    <contour>
      <point x="-92.0" y="0.0" type="line"/>
      <point x="-83.0" y="55.0" type="line"/>
      <point x="29.0" y="58.0" type="line"/>
      <point x="203.0" y="806.0" type="line"/>
      <point x="357.0" y="1432.0" type="line"/>
      <point x="194.0" y="1442.0" type="line"/>
      <point x="203.0" y="1500.0" type="line"/>
      <point x="1398.0" y="1500.0" type="line" smooth="yes"/>
      <point x="1618.0" y="1500.0"/>
      <point x="1835.0" y="1340.0"/>
      <point x="1815.0" y="1175.0" type="qcurve" smooth="yes"/>
      <point x="1795.0" y="1020.0"/>
      <point x="1593.0" y="856.0"/>
      <point x="1454.0" y="828.0" type="qcurve"/>
      <point x="1452.0" y="821.0" type="line"/>
      <point x="1614.0" y="787.0"/>
      <point x="1764.0" y="579.0"/>
      <point x="1734.0" y="414.0" type="qcurve" smooth="yes"/>
      <point x="1699.0" y="224.0"/>
      <point x="1436.0" y="0.0"/>
      <point x="1169.0" y="0.0" type="qcurve" smooth="yes"/>
    </contour>
    <contour>
      <point x="561.0" y="88.0" type="line"/>
      <point x="588.0" y="58.0" type="line"/>
      <point x="941.0" y="58.0" type="line" smooth="yes"/>
      <point x="1060.0" y="58.0"/>
      <point x="1234.0" y="234.0"/>
      <point x="1277.0" y="426.0" type="qcurve" smooth="yes"/>
      <point x="1317.0" y="608.0"/>
      <point x="1186.0" y="788.0"/>
      <point x="1072.0" y="788.0" type="qcurve" smooth="yes"/>
      <point x="712.0" y="788.0" type="line"/>
      <point x="708.0" y="775.0" type="line"/>
    </contour>
    <contour>
      <point x="725.0" y="858.0" type="line"/>
      <point x="720.0" y="839.0" type="line"/>
      <point x="1105.0" y="839.0" type="line" smooth="yes"/>
      <point x="1197.0" y="839.0"/>
      <point x="1351.0" y="1006.0"/>
      <point x="1382.0" y="1168.0" type="qcurve" smooth="yes"/>
      <point x="1412.0" y="1324.0"/>
      <point x="1297.0" y="1446.0"/>
      <point x="1208.0" y="1447.0" type="qcurve" smooth="yes"/>
      <point x="895.0" y="1447.0" type="line"/>
      <point x="870.0" y="1433.0" type="line"/>
    </contour>
  </outline>
</glyph>
<glyph name="H" format="2">
  <advance width="2316"/>
  <unicode hex="0048"/>
  <outline>
    <contour>
      <point x="-92.0" y="0.0" type="line"/>
      <point x="-83.0" y="55.0" type="line"/>
      <point x="47.0" y="70.0" type="line"/>
      <point x="207.0" y="794.0" type="line"/>
      <point x="341.0" y="1432.0" type="line"/>
      <point x="192.0" y="1443.0" type="line"/>
      <point x="202.0" y="1500.0" type="line"/>
      <point x="1018.0" y="1500.0" type="line"/>
      <point x="1008.0" y="1443.0" type="line"/>
      <point x="857.0" y="1432.0" type="line"/>
      <point x="712.0" y="768.0" type="line"/>
      <point x="563.0" y="70.0" type="line"/>
      <point x="713.0" y="55.0" type="line"/>
      <point x="704.0" y="0.0" type="line"/>
    </contour>
    <contour>
      <point x="448.0" y="724.0" type="line"/>
      <point x="458.0" y="798.0" type="line"/>
      <point x="1082.0" y="795.0" type="line"/>
      <point x="1657.0" y="798.0" type="line"/>
      <point x="1647.0" y="724.0" type="line"/>
      <point x="1073.0" y="724.0" type="line"/>
    </contour>
    <contour>
      <point x="1173.0" y="0.0" type="line"/>
      <point x="1182.0" y="55.0" type="line"/>
      <point x="1323.0" y="70.0" type="line"/>
      <point x="1479.0" y="764.0" type="line"/>
      <point x="1617.0" y="1432.0" type="line"/>
      <point x="1501.0" y="1443.0" type="line"/>
      <point x="1511.0" y="1500.0" type="line"/>
      <point x="2302.0" y="1500.0" type="line"/>
      <point x="2292.0" y="1443.0" type="line"/>
      <point x="2131.0" y="1432.0" type="line"/>
      <point x="1984.0" y="748.0" type="line"/>
      <point x="1837.0" y="70.0" type="line"/>
      <point x="1997.0" y="55.0" type="line"/>
      <point x="1988.0" y="0.0" type="line"/>
    </contour>
  </outline>
</glyph>
<glyph name="M" format="2">
  <advance width="2409"/>
  <unicode hex="004D"/>
  <outline>
    <contour>
      <point x="-116.0" y="0.0" type="line"/>
      <point x="-89.0" y="55.0" type="line"/>
      <point x="85.0" y="100.0" type="line"/>
      <point x="237.0" y="747.0" type="line"/>
      <point x="376.0" y="1405.0" type="line"/>
      <point x="181.0" y="1442.0" type="line"/>
      <point x="195.0" y="1500.0" type="line"/>
      <point x="918.0" y="1500.0" type="line"/>
      <point x="992.0" y="965.0" type="line"/>
      <point x="1069.0" y="379.0" type="line"/>
      <point x="1373.0" y="903.0" type="line"/>
      <point x="1706.0" y="1500.0" type="line"/>
      <point x="2425.0" y="1500.0" type="line"/>
      <point x="2414.0" y="1441.0" type="line"/>
      <point x="2261.0" y="1411.0" type="line"/>
      <point x="2113.0" y="768.0" type="line"/>
      <point x="1966.0" y="80.0" type="line"/>
      <point x="2131.0" y="55.0" type="line"/>
      <point x="2120.0" y="0.0" type="line"/>
      <point x="1287.0" y="0.0" type="line"/>
      <point x="1318.0" y="55.0" type="line"/>
      <point x="1445.0" y="80.0" type="line"/>
      <point x="1606.0" y="783.0" type="line"/>
      <point x="1724.0" y="1367.0" type="line"/>
      <point x="1402.0" y="799.0" type="line"/>
      <point x="1002.0" y="2.0" type="line"/>
      <point x="617.0" y="2.0" type="line"/>
      <point x="539.0" y="726.0" type="line"/>
      <point x="448.0" y="1397.0" type="line"/>
      <point x="311.0" y="747.0" type="line"/>
      <point x="157.0" y="100.0" type="line"/>
      <point x="334.0" y="55.0" type="line"/>
      <point x="330.0" y="0.0" type="line"/>
    </contour>
  </outline>
</glyph>
<glyph name="O" format="2">
  <advance width="2074"/>
  <unicode hex="004F"/>
  <outline>
    <contour>
      <point x="7.0" y="837.0" type="qcurve" smooth="yes"/>
      <point x="95.0" y="1235.0"/>
      <point x="745.0" y="1566.0"/>
      <point x="1186.0" y="1522.0" type="qcurve" smooth="yes"/>
      <point x="1555.0" y="1491.0"/>
      <point x="2002.0" y="1066.0"/>
      <point x="1915.0" y="665.0" type="qcurve" smooth="yes"/>
      <point x="1840.0" y="305.0"/>
      <point x="1183.0" y="-81.0"/>
      <point x="746.0" y="-34.0" type="qcurve" smooth="yes"/>
      <point x="321.0" y="8.0"/>
      <point x="-78.0" y="439.0"/>
    </contour>
    <contour>
      <point x="542.0" y="770.0" type="qcurve" smooth="yes"/>
      <point x="455.0" y="386.0"/>
      <point x="546.0" y="55.0"/>
      <point x="743.0" y="34.0" type="qcurve" smooth="yes"/>
      <point x="955.0" y="11.0"/>
      <point x="1307.0" y="375.0"/>
      <point x="1397.0" y="768.0" type="qcurve" smooth="yes"/>
      <point x="1487.0" y="1183.0"/>
      <point x="1338.0" y="1448.0"/>
      <point x="1166.0" y="1456.0" type="qcurve" smooth="yes"/>
      <point x="963.0" y="1471.0"/>
      <point x="633.0" y="1166.0"/>
    </contour>
  </outline>
</glyph>
<glyph name="R" format="2">
  <advance width="2040"/>
  <unicode hex="0052"/>
  <outline>
    <contour>
      <point x="-52.0" y="0.0" type="line"/>
      <point x="-43.0" y="55.0" type="line"/>
      <point x="69.0" y="58.0" type="line"/>
      <point x="246.0" y="836.0" type="line"/>
      <point x="357.0" y="1432.0" type="line"/>
      <point x="194.0" y="1442.0" type="line"/>
      <point x="203.0" y="1500.0" type="line"/>
      <point x="1303.0" y="1500.0" type="line" smooth="yes"/>
      <point x="1595.0" y="1500.0"/>
      <point x="1840.0" y="1296.0"/>
      <point x="1842.0" y="1135.0" type="qcurve" smooth="yes"/>
      <point x="1838.0" y="926.0"/>
      <point x="1550.0" y="676.0"/>
      <point x="1237.0" y="676.0" type="qcurve" smooth="yes"/>
      <point x="1159.0" y="676.0"/>
      <point x="728.0" y="682.0"/>
      <point x="667.0" y="686.0" type="qcurve"/>
      <point x="674.0" y="774.0" type="line"/>
      <point x="792.0" y="771.0" type="line"/>
      <point x="958.0" y="771.0" type="line" smooth="yes"/>
      <point x="1129.0" y="771.0"/>
      <point x="1366.0" y="985.0"/>
      <point x="1378.0" y="1164.0" type="qcurve" smooth="yes"/>
      <point x="1389.0" y="1317.0"/>
      <point x="1262.0" y="1430.0"/>
      <point x="1120.0" y="1430.0" type="qcurve" smooth="yes"/>
      <point x="902.0" y="1430.0" type="line"/>
      <point x="869.0" y="1408.0" type="line"/>
      <point x="737.0" y="731.0" type="line"/>
      <point x="597.0" y="60.0" type="line"/>
      <point x="740.0" y="55.0" type="line"/>
      <point x="739.0" y="0.0" type="line"/>
    </contour>
    <contour>
      <point x="1010.0" y="716.0" type="line"/>
      <point x="1451.0" y="750.0" type="line"/>
      <point x="1491.0" y="658.0" type="line" smooth="yes"/>
      <point x="1619.0" y="257.0"/>
      <point x="1879.0" y="37.0"/>
      <point x="2044.0" y="35.0" type="qcurve"/>
      <point x="2032.0" y="-11.0" type="line"/>
      <point x="1750.0" y="-11.0" type="line" smooth="yes"/>
      <point x="1465.0" y="-11.0"/>
      <point x="1137.0" y="199.0"/>
      <point x="1046.0" y="558.0" type="qcurve" smooth="yes"/>
    </contour>
  </outline>
</glyph>
<glyph name="asciicircum" format="2">
  <advance width="1069"/>
  <unicode hex="005E"/>
  <outline>
    <contour>
      <point x="156.0" y="1010.0" type="line"/>
      <point x="218.0" y="1083.0"/>
      <point x="654.0" y="1517.0"/>
      <point x="654.0" y="1517.0" type="qcurve"/>
      <point x="654.0" y="1517.0"/>
      <point x="935.0" y="1081.0"/>
      <point x="972.0" y="1011.0" type="qcurve"/>
      <point x="913.0" y="959.0" type="line"/>
      <point x="823.0" y="1056.0"/>
      <point x="596.0" y="1304.0"/>
      <point x="596.0" y="1304.0" type="qcurve"/>
      <point x="596.0" y="1304.0"/>
      <point x="323.0" y="1079.0"/>
      <point x="207.0" y="958.0" type="qcurve"/>
    </contour>
  </outline>
</glyph>
<glyph name="e" format="2">
  <advance width="1609"/>
  <unicode hex="0065"/>
  <outline>
    <contour>
      <point x="-64.0" y="435.0" type="qcurve" smooth="yes"/>
      <point x="-49.0" y="664.0"/>
      <point x="437.0" y="993.0"/>
      <point x="844.0" y="993.0" type="qcurve" smooth="yes"/>
      <point x="1036.0" y="993.0"/>
      <point x="1303.0" y="891.0"/>
      <point x="1340.0" y="779.0" type="qcurve" smooth="yes"/>
      <point x="1369.0" y="753.0"/>
      <point x="1382.0" y="653.0"/>
      <point x="1363.0" y="611.0" type="qcurve"/>
      <point x="1458.0" y="611.0" type="line"/>
      <point x="1435.0" y="532.0" type="line"/>
      <point x="1355.0" y="528.0"/>
      <point x="1096.0" y="526.0"/>
      <point x="992.0" y="528.0" type="qcurve" smooth="yes"/>
      <point x="401.0" y="532.0" type="line"/>
      <point x="401.0" y="600.0" type="line"/>
      <point x="1086.0" y="607.0" type="line"/>
      <point x="1101.0" y="647.0"/>
      <point x="1101.0" y="706.0"/>
      <point x="1089.0" y="754.0" type="qcurve" smooth="yes"/>
      <point x="1080.0" y="823.0"/>
      <point x="957.0" y="928.0"/>
      <point x="830.0" y="928.0" type="qcurve" smooth="yes"/>
      <point x="710.0" y="928.0"/>
      <point x="475.0" y="713.0"/>
      <point x="433.0" y="508.0" type="qcurve" smooth="yes"/>
      <point x="398.0" y="342.0"/>
      <point x="522.0" y="120.0"/>
      <point x="719.0" y="108.0" type="qcurve" smooth="yes"/>
      <point x="879.0" y="98.0"/>
      <point x="1199.0" y="225.0"/>
      <point x="1297.0" y="331.0" type="qcurve"/>
      <point x="1346.0" y="280.0" type="line"/>
      <point x="1359.0" y="257.0" type="line"/>
      <point x="1257.0" y="142.0"/>
      <point x="880.0" y="-25.0"/>
      <point x="624.0" y="-17.0" type="qcurve" smooth="yes"/>
      <point x="195.0" y="-6.0"/>
      <point x="-75.0" y="253.0"/>
    </contour>
  </outline>
</glyph>
<glyph name="f" format="2">
  <advance width="1057"/>
  <unicode hex="0066"/>
  <outline>
    <contour>
      <point x="-489.0" y="-419.0" type="line" smooth="yes"/>
      <point x="-470.0" y="-360.0" type="line"/>
      <point x="-289.0" y="-360.0" type="line" smooth="yes"/>
      <point x="-88.0" y="-361.0"/>
      <point x="84.0" y="-68.0"/>
      <point x="148.0" y="347.0" type="qcurve" smooth="yes"/>
      <point x="227.0" y="852.0" type="line"/>
      <point x="229.0" y="857.0" type="line"/>
      <point x="259.0" y="1053.0" type="line" smooth="yes"/>
      <point x="299.0" y="1281.0"/>
      <point x="662.0" y="1551.0"/>
      <point x="925.0" y="1550.0" type="qcurve" smooth="yes"/>
      <point x="1106.0" y="1549.0"/>
      <point x="1320.0" y="1446.0"/>
      <point x="1317.0" y="1336.0" type="qcurve" smooth="yes"/>
      <point x="1315.0" y="1252.0"/>
      <point x="1218.0" y="1167.0"/>
      <point x="1128.0" y="1167.0" type="qcurve" smooth="yes"/>
      <point x="1123.0" y="1195.0"/>
      <point x="1109.0" y="1286.0"/>
      <point x="1110.0" y="1329.0" type="qcurve" smooth="yes"/>
      <point x="1112.0" y="1377.0"/>
      <point x="1071.0" y="1482.0"/>
      <point x="992.0" y="1483.0" type="qcurve" smooth="yes"/>
      <point x="893.0" y="1485.0"/>
      <point x="780.0" y="1296.0"/>
      <point x="736.0" y="1040.0" type="qcurve" smooth="yes"/>
      <point x="706.0" y="858.0" type="line"/>
      <point x="705.0" y="851.0" type="line"/>
      <point x="665.0" y="581.0" type="line" smooth="yes"/>
      <point x="583.0" y="24.0"/>
      <point x="46.0" y="-479.0"/>
      <point x="-231.0" y="-479.0" type="qcurve"/>
    </contour>
    <contour>
      <point x="-10.0" y="771.0" type="line"/>
      <point x="-5.0" y="856.0" type="line"/>
      <point x="243.0" y="867.0" type="line"/>
      <point x="997.0" y="875.0" type="line"/>
      <point x="986.0" y="791.0" type="line"/>
      <point x="598.0" y="776.0" type="line"/>
      <point x="238.0" y="769.0" type="line"/>
    </contour>
  </outline>
</glyph>
<glyph name="g" format="2">
  <advance width="1929"/>
  <unicode hex="0067"/>
  <outline>
    <contour>
      <point x="-39.0" y="283.0" type="qcurve" smooth="yes"/>
      <point x="-50.0" y="564.0"/>
      <point x="589.0" y="997.0"/>
      <point x="1033.0" y="997.0" type="qcurve" smooth="yes"/>
      <point x="1138.0" y="997.0"/>
      <point x="1297.0" y="953.0"/>
      <point x="1333.0" y="912.0" type="qcurve"/>
      <point x="1532.0" y="981.0" type="line"/>
      <point x="1654.0" y="980.0" type="line"/>
      <point x="1698.0" y="825.0" type="line"/>
      <point x="1613.0" y="579.0" type="line" smooth="yes"/>
      <point x="1575.0" y="344.0"/>
      <point x="1546.0" y="223.0"/>
      <point x="1445.0" y="-61.0" type="qcurve" smooth="yes"/>
      <point x="1362.0" y="-219.0"/>
      <point x="763.0" y="-489.0"/>
      <point x="360.0" y="-479.0" type="qcurve"/>
      <point x="92.0" y="-414.0" type="line"/>
      <point x="102.0" y="-345.0" type="line"/>
      <point x="400.0" y="-359.0" type="line" smooth="yes"/>
      <point x="689.0" y="-369.0"/>
      <point x="1088.0" y="-160.0"/>
      <point x="1133.0" y="179.0" type="qcurve" smooth="yes"/>
      <point x="1121.0" y="136.0" type="line"/>
      <point x="1081.0" y="134.0"/>
      <point x="707.0" y="-36.0"/>
      <point x="429.0" y="-36.0" type="qcurve" smooth="yes"/>
      <point x="195.0" y="-36.0"/>
      <point x="-34.0" y="152.0"/>
    </contour>
    <contour>
      <point x="427.0" y="279.0" type="qcurve" smooth="yes"/>
      <point x="430.0" y="176.0"/>
      <point x="554.0" y="83.0"/>
      <point x="654.0" y="83.0" type="qcurve" smooth="yes"/>
      <point x="809.0" y="83.0"/>
      <point x="1138.0" y="284.0"/>
      <point x="1177.0" y="440.0" type="qcurve" smooth="yes"/>
      <point x="1281.0" y="878.0" type="line"/>
      <point x="1263.0" y="900.0"/>
      <point x="1186.0" y="952.0"/>
      <point x="1044.0" y="952.0" type="qcurve" smooth="yes"/>
      <point x="833.0" y="952.0"/>
      <point x="420.0" y="466.0"/>
    </contour>
  </outline>
</glyph>
<glyph name="h" format="2">
  <advance width="1916"/>
  <unicode hex="0068"/>
  <outline>
    <contour>
      <point x="50.0" y="-8.0" type="line"/>
      <point x="32.0" y="63.0" type="line"/>
      <point x="150.0" y="599.0" type="line"/>
      <point x="294.0" y="1411.0" type="line"/>
      <point x="25.0" y="1391.0" type="line"/>
      <point x="36.0" y="1472.0" type="line"/>
      <point x="734.0" y="1580.0" type="line"/>
      <point x="768.0" y="1517.0" type="line"/>
      <point x="602.0" y="598.0" type="line"/>
      <point x="504.0" y="132.0" type="line"/>
      <point x="548.0" y="17.0" type="line"/>
    </contour>
    <contour>
      <point x="1103.0" y="-24.0" type="line"/>
      <point x="992.0" y="120.0" type="line"/>
      <point x="1119.0" y="623.0" type="line" smooth="yes"/>
      <point x="1141.0" y="711.0"/>
      <point x="1082.0" y="799.0"/>
      <point x="1063.0" y="799.0" type="qcurve" smooth="yes"/>
      <point x="972.0" y="799.0"/>
      <point x="730.0" y="757.0"/>
      <point x="586.0" y="602.0" type="qcurve"/>
      <point x="566.0" y="667.0" type="line"/>
      <point x="748.0" y="824.0"/>
      <point x="1124.0" y="980.0"/>
      <point x="1317.0" y="980.0" type="qcurve" smooth="yes"/>
      <point x="1463.0" y="980.0"/>
      <point x="1608.0" y="734.0"/>
      <point x="1573.0" y="561.0" type="qcurve" smooth="yes"/>
      <point x="1479.0" y="119.0" type="line"/>
      <point x="1738.0" y="153.0" type="line"/>
      <point x="1729.0" y="91.0" type="line"/>
    </contour>
  </outline>
</glyph>
<glyph name="j" format="2">
  <advance width="861"/>
  <unicode hex="006A"/>
  <outline>
    <contour>
      <point x="122.0" y="809.0" type="qcurve"/>
      <point x="-49.0" y="836.0" type="line"/>
      <point x="-44.0" y="918.0" type="line"/>
      <point x="508.0" y="971.0" type="line"/>
      <point x="610.0" y="958.0" type="line"/>
      <point x="618.0" y="906.0" type="line"/>
      <point x="588.0" y="769.0" type="line"/>
      <point x="500.0" y="350.0" type="line"/>
      <point x="441.0" y="-6.0"/>
      <point x="-4.0" y="-479.0"/>
      <point x="-361.0" y="-479.0" type="qcurve"/>
      <point x="-581.0" y="-419.0" type="line"/>
      <point x="-561.0" y="-345.0" type="line"/>
      <point x="-440.0" y="-343.0" type="line" smooth="yes"/>
      <point x="-203.0" y="-339.0"/>
      <point x="-37.0" y="-77.0"/>
      <point x="6.0" y="162.0" type="qcurve" smooth="yes"/>
      <point x="23.0" y="257.0"/>
      <point x="93.0" y="614.0"/>
    </contour>
    <contour>
      <point x="145.0" y="1314.0" type="qcurve" smooth="yes"/>
      <point x="158.0" y="1407.0"/>
      <point x="292.0" y="1506.0"/>
      <point x="406.0" y="1506.0" type="qcurve" smooth="yes"/>
      <point x="512.0" y="1506.0"/>
      <point x="630.0" y="1400.0"/>
      <point x="616.0" y="1314.0" type="qcurve" smooth="yes"/>
      <point x="602.0" y="1224.0"/>
      <point x="468.0" y="1124.0"/>
      <point x="354.0" y="1124.0" type="qcurve" smooth="yes"/>
      <point x="249.0" y="1124.0"/>
      <point x="131.0" y="1229.0"/>
    </contour>
  </outline>
</glyph>
<glyph name="n" format="2">
  <advance width="1925"/>
  <unicode hex="006E"/>
  <outline>
    <contour>
      <point x="32.0" y="10.0" type="line"/>
      <point x="31.0" y="138.0" type="line"/>
      <point x="126.0" y="458.0" type="line"/>
      <point x="189.0" y="807.0" type="line"/>
      <point x="-32.0" y="814.0" type="line"/>
      <point x="-26.0" y="877.0" type="line"/>
      <point x="458.0" y="971.0" type="line"/>
      <point x="658.0" y="957.0" type="line"/>
      <point x="625.0" y="702.0" type="line"/>
      <point x="617.0" y="680.0" type="line"/>
      <point x="518.0" y="202.0" type="line"/>
      <point x="572.0" y="36.0" type="line"/>
    </contour>
    <contour>
      <point x="1080.0" y="-19.0" type="line"/>
      <point x="993.0" y="120.0" type="line"/>
      <point x="1120.0" y="623.0" type="line" smooth="yes"/>
      <point x="1142.0" y="711.0"/>
      <point x="1083.0" y="799.0"/>
      <point x="1064.0" y="799.0" type="qcurve" smooth="yes"/>
      <point x="973.0" y="799.0"/>
      <point x="721.0" y="752.0"/>
      <point x="587.0" y="602.0" type="qcurve"/>
      <point x="567.0" y="667.0" type="line"/>
      <point x="747.0" y="828.0"/>
      <point x="1125.0" y="980.0"/>
      <point x="1318.0" y="980.0" type="qcurve" smooth="yes"/>
      <point x="1464.0" y="980.0"/>
      <point x="1609.0" y="734.0"/>
      <point x="1574.0" y="561.0" type="qcurve" smooth="yes"/>
      <point x="1480.0" y="119.0" type="line"/>
      <point x="1739.0" y="153.0" type="line"/>
      <point x="1730.0" y="91.0" type="line"/>
    </contour>
  </outline>
</glyph>
<glyph name="q" format="2">
  <advance width="1949"/>
  <unicode hex="0071"/>
  <outline>
    <contour>
      <point x="-40.0" y="271.0" type="qcurve" smooth="yes"/>
      <point x="-51.0" y="571.0"/>
      <point x="569.0" y="996.0"/>
      <point x="1024.0" y="996.0" type="qcurve" smooth="yes"/>
      <point x="1151.0" y="996.0"/>
      <point x="1327.0" y="944.0"/>
      <point x="1374.0" y="899.0" type="qcurve"/>
      <point x="1501.0" y="952.0" type="line"/>
      <point x="1625.0" y="952.0" type="line"/>
      <point x="1661.0" y="761.0" type="line"/>
      <point x="1587.0" y="407.0" type="line"/>
      <point x="1406.0" y="-373.0" type="line"/>
      <point x="1610.0" y="-391.0" type="line"/>
      <point x="1596.0" y="-460.0" type="line"/>
      <point x="989.0" y="-462.0" type="line"/>
      <point x="968.0" y="-413.0" type="line"/>
      <point x="1100.0" y="168.0" type="line"/>
      <point x="1092.0" y="168.0" type="line"/>
      <point x="954.0" y="75.0"/>
      <point x="656.0" y="-15.0"/>
      <point x="435.0" y="-15.0" type="qcurve" smooth="yes"/>
      <point x="204.0" y="-15.0"/>
      <point x="-35.0" y="134.0"/>
    </contour>
    <contour>
      <point x="414.0" y="260.0" type="qcurve" smooth="yes"/>
      <point x="417.0" y="168.0"/>
      <point x="524.0" y="100.0"/>
      <point x="618.0" y="100.0" type="qcurve" smooth="yes"/>
      <point x="800.0" y="100.0"/>
      <point x="1130.0" y="315.0"/>
      <point x="1180.0" y="488.0" type="qcurve" smooth="yes"/>
      <point x="1267.0" y="864.0" type="line"/>
      <point x="1255.0" y="875.0"/>
      <point x="1139.0" y="932.0"/>
      <point x="990.0" y="932.0" type="qcurve" smooth="yes"/>
      <point x="788.0" y="932.0"/>
      <point x="407.0" y="466.0"/>
    </contour>
  </outline>
</glyph>
<glyph name="w" format="2">
  <advance width="2387"/>
  <unicode hex="0077"/>
  <outline>
    <contour>
      <point x="-95.0" y="855.0" type="line"/>
      <point x="-99.0" y="912.0" type="line"/>
      <point x="383.0" y="974.0" type="line"/>
      <point x="535.0" y="959.0" type="line"/>
      <point x="563.0" y="567.0" type="line"/>
      <point x="595.0" y="162.0" type="line"/>
      <point x="762.0" y="253.0"/>
      <point x="1094.0" y="650.0"/>
      <point x="1142.0" y="751.0" type="qcurve"/>
      <point x="1217.0" y="764.0" type="line"/>
      <point x="1140.0" y="631.0"/>
      <point x="814.0" y="243.0"/>
      <point x="511.0" y="4.0" type="qcurve"/>
      <point x="150.0" y="10.0" type="line"/>
      <point x="127.0" y="510.0" type="line"/>
      <point x="91.0" y="864.0" type="line"/>
    </contour>
    <contour>
      <point x="968.0" y="923.0" type="line"/>
      <point x="1339.0" y="969.0" type="line"/>
      <point x="1491.0" y="955.0" type="line"/>
      <point x="1506.0" y="570.0" type="line"/>
      <point x="1546.0" y="165.0" type="line"/>
      <point x="1766.0" y="304.0"/>
      <point x="2052.0" y="640.0"/>
      <point x="2057.0" y="723.0" type="qcurve" smooth="yes"/>
      <point x="2061.0" y="764.0"/>
      <point x="2040.0" y="852.0"/>
      <point x="1971.0" y="924.0" type="qcurve" smooth="yes"/>
      <point x="1998.0" y="958.0"/>
      <point x="2075.0" y="989.0"/>
      <point x="2143.0" y="989.0" type="qcurve" smooth="yes"/>
      <point x="2244.0" y="983.0"/>
      <point x="2322.0" y="910.0"/>
      <point x="2316.0" y="849.0" type="qcurve" smooth="yes"/>
      <point x="2307.0" y="748.0"/>
      <point x="1864.0" y="253.0"/>
      <point x="1457.0" y="7.0" type="qcurve"/>
      <point x="1104.0" y="13.0" type="line"/>
      <point x="1081.0" y="476.0" type="line"/>
      <point x="1057.0" y="874.0" type="line"/>
      <point x="970.0" y="868.0" type="line"/>
    </contour>
  </outline>
</glyph>
<glyph name="braceright" format="2">
  <advance width="842"/>
  <unicode hex="007D"/>
  <outline>
    <contour>
      <point x="-279.0" y="-107.0" type="qcurve"/>
      <point x="-270.0" y="-78.0" type="line"/>
      <point x="-236.0" y="-84.0"/>
      <point x="-162.0" y="-87.0"/>
      <point x="-122.0" y="-86.0" type="qcurve" smooth="yes"/>
      <point x="-50.0" y="-84.0"/>
      <point x="44.0" y="10.0"/>
      <point x="61.0" y="106.0" type="qcurve" smooth="yes"/>
      <point x="77.0" y="193.0"/>
      <point x="-9.0" y="490.0"/>
      <point x="7.0" y="569.0" type="qcurve" smooth="yes"/>
      <point x="27.0" y="671.0"/>
      <point x="157.0" y="751.0"/>
      <point x="281.0" y="758.0" type="qcurve"/>
      <point x="152.0" y="788.0"/>
      <point x="51.0" y="868.0"/>
      <point x="101.0" y="955.0" type="qcurve" smooth="yes"/>
      <point x="139.0" y="1020.0"/>
      <point x="297.0" y="1221.0"/>
      <point x="312.0" y="1298.0" type="qcurve" smooth="yes"/>
      <point x="329.0" y="1394.0"/>
      <point x="256.0" y="1477.0"/>
      <point x="186.0" y="1477.0" type="qcurve" smooth="yes"/>
      <point x="146.0" y="1477.0"/>
      <point x="48.0" y="1470.0"/>
      <point x="22.0" y="1468.0" type="qcurve"/>
      <point x="27.0" y="1499.0" type="line"/>
      <point x="58.0" y="1502.0"/>
      <point x="346.0" y="1510.0"/>
      <point x="403.0" y="1510.0" type="qcurve" smooth="yes"/>
      <point x="535.0" y="1510.0"/>
      <point x="716.0" y="1372.0"/>
      <point x="679.0" y="1213.0" type="qcurve" smooth="yes"/>
      <point x="654.0" y="1105.0"/>
      <point x="472.0" y="904.0"/>
      <point x="458.0" y="837.0" type="qcurve"/>
      <point x="442.0" y="779.0" type="line"/>
      <point x="677.0" y="778.0" type="line"/>
      <point x="667.0" y="735.0" type="line"/>
      <point x="527.0" y="729.0" type="line" smooth="yes"/>
      <point x="507.0" y="728.0"/>
      <point x="427.0" y="710.0"/>
      <point x="409.0" y="654.0" type="qcurve" smooth="yes"/>
      <point x="365.0" y="494.0"/>
      <point x="478.0" y="240.0"/>
      <point x="453.0" y="122.0" type="qcurve" smooth="yes"/>
      <point x="426.0" y="-5.0"/>
      <point x="213.0" y="-122.0"/>
      <point x="55.0" y="-122.0" type="qcurve" smooth="yes"/>
      <point x="8.0" y="-122.0"/>
      <point x="-249.0" y="-114.0"/>
    </contour>
  </outline>
</glyph>
<glyph name="asciitilde" format="2">
  <advance width="977"/>
  <unicode hex="007E"/>
  <outline>
    <contour>
      <point x="58.0" y="602.0" type="line"/>
      <point x="109.0" y="690.0"/>
      <point x="249.0" y="851.0"/>
      <point x="323.0" y="860.0" type="qcurve"/>
      <point x="605.0" y="746.0" type="line"/>
      <point x="657.0" y="746.0"/>
      <point x="737.0" y="796.0"/>
      <point x="779.0" y="865.0" type="qcurve"/>
      <point x="829.0" y="806.0" type="line"/>
      <point x="787.0" y="711.0"/>
      <point x="654.0" y="542.0"/>
      <point x="559.0" y="532.0" type="qcurve"/>
      <point x="294.0" y="640.0" type="line"/>
      <point x="242.0" y="640.0"/>
      <point x="160.0" y="600.0"/>
      <point x="106.0" y="533.0" type="qcurve"/>
    </contour>
  </outline>
</glyph>
<glyph name="registered" format="2">
  <advance width="1973"/>
  <unicode hex="00AE"/>
  <outline>
    <contour>
      <point x="-4.0" y="667.0" type="qcurve" smooth="yes"/>
      <point x="-4.0" y="1023.0"/>
      <point x="520.0" y="1514.0"/>
      <point x="917.0" y="1514.0" type="qcurve" smooth="yes"/>
      <point x="1312.0" y="1514.0"/>
      <point x="1853.0" y="1048.0"/>
      <point x="1853.0" y="688.0" type="qcurve" smooth="yes"/>
      <point x="1853.0" y="293.0"/>
      <point x="1330.0" y="-198.0"/>
      <point x="939.0" y="-198.0" type="qcurve" smooth="yes"/>
      <point x="536.0" y="-198.0"/>
      <point x="-4.0" y="281.0"/>
    </contour>
    <contour>
      <point x="127.0" y="660.0" type="qcurve" smooth="yes"/>
      <point x="127.0" y="339.0"/>
      <point x="602.0" y="-62.0"/>
      <point x="940.0" y="-62.0" type="qcurve" smooth="yes"/>
      <point x="1271.0" y="-62.0"/>
      <point x="1716.0" y="360.0"/>
      <point x="1716.0" y="677.0" type="qcurve" smooth="yes"/>
      <point x="1716.0" y="966.0"/>
      <point x="1257.0" y="1374.0"/>
      <point x="915.0" y="1374.0" type="qcurve" smooth="yes"/>
      <point x="587.0" y="1374.0"/>
      <point x="127.0" y="958.0"/>
    </contour>
    <contour>
      <point x="581.0" y="259.0" type="line"/>
      <point x="582.0" y="285.0" type="line"/>
      <point x="656.0" y="305.0" type="line"/>
      <point x="664.0" y="698.0" type="line"/>
      <point x="654.0" y="1010.0" type="line"/>
      <point x="581.0" y="1034.0" type="line"/>
      <point x="583.0" y="1089.0" type="line"/>
      <point x="1025.0" y="1089.0" type="line" smooth="yes"/>
      <point x="1151.0" y="1089.0"/>
      <point x="1304.0" y="967.0"/>
      <point x="1304.0" y="855.0" type="qcurve" smooth="yes"/>
      <point x="1304.0" y="730.0"/>
      <point x="1124.0" y="601.0"/>
      <point x="1022.0" y="601.0" type="qcurve" smooth="yes"/>
      <point x="982.0" y="601.0"/>
      <point x="849.0" y="608.0"/>
      <point x="830.0" y="608.0" type="qcurve"/>
      <point x="828.0" y="668.0" type="line"/>
      <point x="943.0" y="668.0" type="line" smooth="yes"/>
      <point x="1040.0" y="668.0"/>
      <point x="1107.0" y="762.0"/>
      <point x="1107.0" y="857.0" type="qcurve" smooth="yes"/>
      <point x="1107.0" y="949.0"/>
      <point x="1044.0" y="1021.0"/>
      <point x="960.0" y="1021.0" type="qcurve" smooth="yes"/>
      <point x="875.0" y="1021.0" type="line"/>
      <point x="857.0" y="1006.0" type="line"/>
      <point x="849.0" y="678.0" type="line"/>
      <point x="859.0" y="305.0" type="line"/>
      <point x="934.0" y="285.0" type="line"/>
      <point x="934.0" y="259.0" type="line"/>
    </contour>
    <contour>
      <point x="935.0" y="668.0" type="line"/>
      <point x="1126.0" y="691.0" type="line"/>
      <point x="1306.0" y="390.0" type="line" smooth="yes"/>
      <point x="1342.0" y="324.0"/>
      <point x="1391.0" y="289.0"/>
      <point x="1424.0" y="289.0" type="qcurve"/>
      <point x="1422.0" y="259.0" type="line"/>
      <point x="1190.0" y="259.0" type="line"/>
      <point x="1157.0" y="270.0" type="line"/>
    </contour>
  </outline>
</glyph>
<glyph name="periodcentered" format="2">
  <advance width="633"/>
  <unicode hex="00B7"/>
  <outline>
    <contour>
      <point x="50.0" y="638.0" type="qcurve" smooth="yes"/>
      <point x="50.0" y="724.0"/>
      <point x="176.0" y="850.0"/>
      <point x="274.0" y="850.0" type="qcurve" smooth="yes"/>
      <point x="372.0" y="850.0"/>
      <point x="500.0" y="724.0"/>
      <point x="500.0" y="638.0" type="qcurve" smooth="yes"/>
      <point x="500.0" y="552.0"/>
      <point x="372.0" y="425.0"/>
      <point x="274.0" y="425.0" type="qcurve" smooth="yes"/>
      <point x="176.0" y="425.0"/>
      <point x="50.0" y="552.0"/>
    </contour>
  </outline>
</glyph>
<glyph name="guillemetright" format="2">
  <advance width="1928"/>
  <unicode hex="00BB"/>
  <outline>
    <contour>
      <point x="888.0" y="568.0" type="line"/>
      <point x="888.0" y="568.0"/>
      <point x="117.0" y="224.0"/>
      <point x="40.0" y="180.0" type="qcurve" smooth="yes"/>
      <point x="-27.0" y="143.0"/>
      <point x="-53.0" y="244.0"/>
      <point x="13.0" y="289.0" type="qcurve" smooth="yes"/>
      <point x="120.0" y="360.0"/>
      <point x="519.0" y="565.0"/>
      <point x="561.0" y="596.0" type="qcurve"/>
      <point x="520.0" y="626.0"/>
      <point x="87.0" y="872.0"/>
      <point x="53.0" y="911.0" type="qcurve" smooth="yes"/>
      <point x="18.0" y="960.0"/>
      <point x="72.0" y="1047.0"/>
      <point x="117.0" y="1030.0" type="qcurve" smooth="yes"/>
      <point x="175.0" y="999.0"/>
      <point x="814.0" y="676.0"/>
      <point x="900.0" y="628.0" type="qcurve"/>
    </contour>
    <contour>
      <point x="1718.0" y="596.0" type="line"/>
      <point x="1718.0" y="596.0"/>
      <point x="947.0" y="252.0"/>
      <point x="870.0" y="208.0" type="qcurve" smooth="yes"/>
      <point x="803.0" y="171.0"/>
      <point x="777.0" y="272.0"/>
      <point x="843.0" y="317.0" type="qcurve" smooth="yes"/>
      <point x="950.0" y="388.0"/>
      <point x="1349.0" y="593.0"/>
      <point x="1391.0" y="624.0" type="qcurve"/>
      <point x="1350.0" y="654.0"/>
      <point x="953.0" y="862.0"/>
      <point x="919.0" y="901.0" type="qcurve" smooth="yes"/>
      <point x="884.0" y="950.0"/>
      <point x="938.0" y="1037.0"/>
      <point x="983.0" y="1020.0" type="qcurve" smooth="yes"/>
      <point x="1041.0" y="989.0"/>
      <point x="1644.0" y="704.0"/>
      <point x="1730.0" y="656.0" type="qcurve"/>
    </contour>
  </outline>
</glyph>
<glyph name="questiondown" format="2">
  <advance width="1412"/>
  <unicode hex="00BF"/>
  <outline>
    <contour>
      <point x="1211.0" y="248.0" type="qcurve" smooth="yes"/>
      <point x="1190.0" y="114.0"/>
      <point x="870.0" y="-8.0"/>
      <point x="624.0" y="-8.0" type="qcurve" smooth="yes"/>
      <point x="315.0" y="-8.0"/>
      <point x="75.0" y="174.0"/>
      <point x="87.0" y="353.0" type="qcurve" smooth="yes"/>
      <point x="99.0" y="527.0"/>
      <point x="316.0" y="710.0"/>
      <point x="407.0" y="669.0" type="qcurve" smooth="yes"/>
      <point x="648.0" y="755.0"/>
      <point x="965.0" y="868.0"/>
      <point x="989.0" y="950.0" type="qcurve" smooth="yes"/>
      <point x="1004.0" y="1007.0" type="line"/>
      <point x="1104.0" y="997.0" type="line"/>
      <point x="1098.0" y="913.0" type="line" smooth="yes"/>
      <point x="1093.0" y="803.0"/>
      <point x="950.0" y="611.0"/>
      <point x="671.0" y="483.0" type="qcurve" smooth="yes"/>
      <point x="578.0" y="468.0"/>
      <point x="501.0" y="406.0"/>
      <point x="490.0" y="311.0" type="qcurve" smooth="yes"/>
      <point x="480.0" y="200.0"/>
      <point x="625.0" y="92.0"/>
      <point x="748.0" y="92.0" type="qcurve" smooth="yes"/>
      <point x="861.0" y="92.0"/>
      <point x="999.0" y="124.0"/>
      <point x="1009.0" y="186.0" type="qcurve" smooth="yes"/>
      <point x="1015.0" y="217.0"/>
      <point x="945.0" y="280.0"/>
      <point x="938.0" y="339.0" type="qcurve" smooth="yes"/>
      <point x="933.0" y="386.0"/>
      <point x="1024.0" y="442.0"/>
      <point x="1089.0" y="442.0" type="qcurve" smooth="yes"/>
      <point x="1154.0" y="442.0"/>
      <point x="1225.0" y="343.0"/>
    </contour>
    <contour>
      <point x="1308.0" y="1298.0" type="qcurve" smooth="yes"/>
      <point x="1304.0" y="1209.0"/>
      <point x="1197.0" y="1101.0"/>
      <point x="1107.0" y="1101.0" type="qcurve" smooth="yes"/>
      <point x="1023.0" y="1101.0"/>
      <point x="923.0" y="1213.0"/>
      <point x="930.0" y="1298.0" type="qcurve" smooth="yes"/>
      <point x="934.0" y="1387.0"/>
      <point x="1042.0" y="1493.0"/>
      <point x="1132.0" y="1493.0" type="qcurve" smooth="yes"/>
      <point x="1216.0" y="1493.0"/>
      <point x="1314.0" y="1383.0"/>
    </contour>
  </outline>
</glyph>
<glyph name="Thorn" format="2">
  <advance width="1914"/>
  <unicode hex="00DE"/>
  <outline>
    <contour>
      <point x="842.0" y="1236.0" type="line"/>
      <point x="1230.0" y="1236.0" type="line" smooth="yes"/>
      <point x="1463.0" y="1236.0"/>
      <point x="1736.0" y="1025.0"/>
      <point x="1726.0" y="801.0" type="qcurve" smooth="yes"/>
      <point x="1710.0" y="542.0"/>
      <point x="1367.0" y="314.0"/>
      <point x="965.0" y="314.0" type="qcurve" smooth="yes"/>
      <point x="884.0" y="314.0"/>
      <point x="626.0" y="330.0"/>
      <point x="586.0" y="348.0" type="qcurve"/>
      <point x="591.0" y="432.0" type="line"/>
      <point x="642.0" y="415.0"/>
      <point x="843.0" y="395.0"/>
      <point x="867.0" y="395.0" type="qcurve" smooth="yes"/>
      <point x="1040.0" y="395.0"/>
      <point x="1233.0" y="542.0"/>
      <point x="1261.0" y="779.0" type="qcurve" smooth="yes"/>
      <point x="1279.0" y="967.0"/>
      <point x="1146.0" y="1168.0"/>
      <point x="988.0" y="1168.0" type="qcurve" smooth="yes"/>
      <point x="849.0" y="1168.0" type="line"/>
      <point x="816.0" y="1144.0" type="line"/>
      <point x="664.0" y="408.0" type="line"/>
      <point x="579.0" y="70.0" type="line"/>
      <point x="716.0" y="55.0" type="line"/>
      <point x="701.0" y="0.0" type="line"/>
      <point x="-81.0" y="0.0" type="line"/>
      <point x="-52.0" y="55.0" type="line"/>
      <point x="50.0" y="56.0" type="line"/>
      <point x="234.0" y="849.0" type="line"/>
      <point x="357.0" y="1431.0" type="line"/>
      <point x="195.0" y="1442.0" type="line"/>
      <point x="204.0" y="1500.0" type="line"/>
      <point x="1005.0" y="1500.0" type="line"/>
      <point x="998.0" y="1434.0" type="line"/>
      <point x="862.0" y="1427.0" type="line"/>
    </contour>
  </outline>
</glyph>
<glyph name="germandbls" format="2">
  <advance width="1981"/>
  <unicode hex="00DF"/>
  <outline>
    <contour>
      <point x="77.0" y="455.0" type="qcurve"/>
      <point x="214.0" y="1187.0" type="line" smooth="yes"/>
      <point x="247.0" y="1367.0"/>
      <point x="507.0" y="1597.0"/>
      <point x="782.0" y="1597.0" type="qcurve" smooth="yes"/>
      <point x="966.0" y="1597.0"/>
      <point x="1199.0" y="1439.0"/>
      <point x="1205.0" y="1314.0" type="qcurve" smooth="yes"/>
      <point x="1210.0" y="1225.0"/>
      <point x="1141.0" y="1099.0"/>
      <point x="1069.0" y="1018.0" type="qcurve" smooth="yes"/>
      <point x="1016.0" y="948.0"/>
      <point x="1015.0" y="895.0"/>
      <point x="1015.0" y="864.0" type="qcurve" smooth="yes"/>
      <point x="1015.0" y="819.0"/>
      <point x="1180.0" y="720.0"/>
      <point x="1405.0" y="649.0" type="qcurve" smooth="yes"/>
      <point x="1629.0" y="575.0"/>
      <point x="1759.0" y="426.0"/>
      <point x="1754.0" y="343.0" type="qcurve" smooth="yes"/>
      <point x="1748.0" y="156.0"/>
      <point x="1462.0" y="-27.0"/>
      <point x="1163.0" y="-27.0" type="qcurve" smooth="yes"/>
      <point x="898.0" y="-27.0"/>
      <point x="634.0" y="52.0"/>
      <point x="632.0" y="160.0" type="qcurve" smooth="yes"/>
      <point x="631.0" y="217.0"/>
      <point x="728.0" y="280.0"/>
      <point x="820.0" y="280.0" type="qcurve" smooth="yes"/>
      <point x="848.0" y="280.0" type="line"/>
      <point x="852.0" y="216.0" type="line" smooth="yes"/>
      <point x="852.0" y="122.0"/>
      <point x="1045.0" y="34.0"/>
      <point x="1156.0" y="34.0" type="qcurve" smooth="yes"/>
      <point x="1319.0" y="34.0"/>
      <point x="1446.0" y="100.0"/>
      <point x="1452.0" y="139.0" type="qcurve" smooth="yes"/>
      <point x="1458.0" y="178.0"/>
      <point x="1405.0" y="213.0"/>
      <point x="1190.0" y="291.0" type="qcurve" smooth="yes"/>
      <point x="955.0" y="372.0"/>
      <point x="738.0" y="557.0"/>
      <point x="745.0" y="684.0" type="qcurve" smooth="yes"/>
      <point x="751.0" y="769.0"/>
      <point x="852.0" y="959.0"/>
      <point x="897.0" y="1010.0" type="qcurve" smooth="yes"/>
      <point x="979.0" y="1099.0"/>
      <point x="1049.0" y="1204.0"/>
      <point x="1049.0" y="1320.0" type="qcurve" smooth="yes"/>
      <point x="1049.0" y="1437.0"/>
      <point x="913.0" y="1526.0"/>
      <point x="837.0" y="1526.0" type="qcurve" smooth="yes"/>
      <point x="811.0" y="1526.0"/>
      <point x="691.0" y="1401.0"/>
      <point x="657.0" y="1187.0" type="qcurve" smooth="yes"/>
      <point x="562.0" y="537.0" type="line" smooth="yes"/>
      <point x="484.0" y="37.0"/>
      <point x="10.0" y="-393.0"/>
      <point x="-230.0" y="-393.0" type="qcurve"/>
      <point x="-517.0" y="-341.0" type="line"/>
      <point x="-488.0" y="-276.0" type="line"/>
      <point x="-348.0" y="-276.0" type="line"/>
      <point x="-133.0" y="-274.0"/>
      <point x="6.0" y="27.0"/>
    </contour>
  </outline>
</glyph>
<glyph name="oe" format="2">
  <advance width="2814"/>
  <unicode hex="0153"/>
  <outline>
    <contour>
      <point x="-45.0" y="575.0" type="qcurve" smooth="yes"/>
      <point x="11.0" y="804.0"/>
      <point x="554.0" y="1008.0"/>
      <point x="933.0" y="999.0" type="qcurve" smooth="yes"/>
      <point x="1114.0" y="994.0"/>
      <point x="1371.0" y="921.0"/>
      <point x="1452.0" y="861.0" type="qcurve"/>
      <point x="1556.0" y="918.0"/>
      <point x="1864.0" y="967.0"/>
      <point x="2041.0" y="967.0" type="qcurve" smooth="yes"/>
      <point x="2247.0" y="967.0"/>
      <point x="2480.0" y="887.0"/>
      <point x="2529.0" y="749.0" type="qcurve" smooth="yes"/>
      <point x="2564.0" y="723.0"/>
      <point x="2577.0" y="653.0"/>
      <point x="2558.0" y="611.0" type="qcurve"/>
      <point x="2658.0" y="611.0" type="line"/>
      <point x="2635.0" y="532.0" type="line"/>
      <point x="2555.0" y="528.0"/>
      <point x="2301.0" y="526.0"/>
      <point x="2197.0" y="528.0" type="qcurve" smooth="yes"/>
      <point x="1606.0" y="532.0" type="line"/>
      <point x="1606.0" y="600.0" type="line"/>
      <point x="2311.0" y="607.0" type="line"/>
      <point x="2328.0" y="649.0"/>
      <point x="2315.0" y="692.0"/>
      <point x="2307.0" y="728.0" type="qcurve" smooth="yes"/>
      <point x="2298.0" y="797.0"/>
      <point x="2174.0" y="902.0"/>
      <point x="2047.0" y="902.0" type="qcurve" smooth="yes"/>
      <point x="1907.0" y="902.0"/>
      <point x="1680.0" y="713.0"/>
      <point x="1638.0" y="508.0" type="qcurve" smooth="yes"/>
      <point x="1603.0" y="342.0"/>
      <point x="1727.0" y="136.0"/>
      <point x="1924.0" y="124.0" type="qcurve" smooth="yes"/>
      <point x="2084.0" y="114.0"/>
      <point x="2404.0" y="241.0"/>
      <point x="2502.0" y="347.0" type="qcurve"/>
      <point x="2551.0" y="296.0" type="line"/>
      <point x="2564.0" y="273.0" type="line"/>
      <point x="2462.0" y="158.0"/>
      <point x="2085.0" y="-9.0"/>
      <point x="1829.0" y="-1.0" type="qcurve" smooth="yes"/>
      <point x="1637.0" y="5.0"/>
      <point x="1382.0" y="38.0"/>
      <point x="1313.0" y="62.0" type="qcurve"/>
      <point x="1202.0" y="7.0"/>
      <point x="877.0" y="-36.0"/>
      <point x="674.0" y="-24.0" type="qcurve" smooth="yes"/>
      <point x="296.0" y="-7.0"/>
      <point x="-105.0" y="343.0"/>
    </contour>
    <contour>
      <point x="464.0" y="540.0" type="qcurve" smooth="yes"/>
      <point x="420.0" y="346.0"/>
      <point x="522.0" y="75.0"/>
      <point x="718.0" y="61.0" type="qcurve" smooth="yes"/>
      <point x="918.0" y="46.0"/>
      <point x="1135.0" y="338.0"/>
      <point x="1153.0" y="500.0" type="qcurve" smooth="yes"/>
      <point x="1175.0" y="669.0"/>
      <point x="1080.0" y="901.0"/>
      <point x="885.0" y="910.0" type="qcurve" smooth="yes"/>
      <point x="690.0" y="918.0"/>
      <point x="500.0" y="711.0"/>
    </contour>
  </outline>
</glyph>
<glyph name="apostrophemod" format="2">
  <advance width="617"/>
  <unicode hex="02BC"/>
  <outline>
    <contour>
      <point x="188.0" y="915.0" type="line"/>
      <point x="293.0" y="977.0"/>
      <point x="407.0" y="1071.0"/>
      <point x="438.0" y="1128.0" type="qcurve"/>
      <point x="323.0" y="1126.0"/>
      <point x="197.0" y="1232.0"/>
      <point x="197.0" y="1324.0" type="qcurve" smooth="yes"/>
      <point x="197.0" y="1400.0"/>
      <point x="311.0" y="1515.0"/>
      <point x="398.0" y="1515.0" type="qcurve" smooth="yes"/>
      <point x="488.0" y="1515.0"/>
      <point x="610.0" y="1409.0"/>
      <point x="610.0" y="1287.0" type="qcurve" smooth="yes"/>
      <point x="610.0" y="1149.0"/>
      <point x="403.0" y="944.0"/>
      <point x="220.0" y="869.0" type="qcurve"/>
    </contour>
  </outline>
</glyph>
<glyph name="Germandbls" format="2">
  <advance width="2243"/>
  <unicode hex="1E9E"/>
  <outline>
    <contour>
      <point x="608.0" y="-349.0" type="line"/>
      <point x="612.0" y="-404.0" type="line"/>
      <point x="-169.0" y="-404.0" type="line"/>
      <point x="-160.0" y="-349.0" type="line"/>
      <point x="-29.0" y="-341.0" type="line"/>
      <point x="188.0" y="706.0" type="line"/>
      <point x="235.0" y="940.0" type="line" smooth="yes"/>
      <point x="299.0" y="1261.0"/>
      <point x="720.0" y="1544.0"/>
      <point x="1178.0" y="1544.0" type="qcurve" smooth="yes"/>
      <point x="1303.0" y="1544.0"/>
      <point x="1425.0" y="1532.0"/>
      <point x="1505.0" y="1513.0" type="qcurve" smooth="yes"/>
      <point x="1566.0" y="1509.0" type="line"/>
      <point x="1569.0" y="1450.0" type="line"/>
      <point x="1431.0" y="1450.0"/>
      <point x="1317.0" y="1351.0"/>
      <point x="1303.0" y="1276.0" type="qcurve" smooth="yes"/>
      <point x="1273.0" y="1140.0"/>
      <point x="1418.0" y="988.0"/>
      <point x="1599.0" y="917.0" type="qcurve" smooth="yes"/>
      <point x="1839.0" y="817.0"/>
      <point x="2078.0" y="550.0"/>
      <point x="2021.0" y="353.0" type="qcurve" smooth="yes"/>
      <point x="1970.0" y="162.0"/>
      <point x="1604.0" y="-32.0"/>
      <point x="1339.0" y="-32.0" type="qcurve" smooth="yes"/>
      <point x="1122.0" y="-32.0"/>
      <point x="901.0" y="21.0"/>
      <point x="836.0" y="97.0" type="qcurve"/>
      <point x="731.0" y="-15.0" type="line"/>
      <point x="664.0" y="4.0" type="line"/>
      <point x="761.0" y="451.0" type="line"/>
      <point x="837.0" y="451.0" type="line"/>
      <point x="868.0" y="298.0" type="line" smooth="yes"/>
      <point x="897.0" y="144.0"/>
      <point x="1149.0" y="28.0"/>
      <point x="1241.0" y="28.0" type="qcurve" smooth="yes"/>
      <point x="1456.0" y="28.0"/>
      <point x="1594.0" y="122.0"/>
      <point x="1634.0" y="251.0" type="qcurve" smooth="yes"/>
      <point x="1668.0" y="405.0"/>
      <point x="1376.0" y="583.0"/>
      <point x="1203.0" y="656.0" type="qcurve" smooth="yes"/>
      <point x="1042.0" y="727.0"/>
      <point x="867.0" y="945.0"/>
      <point x="908.0" y="1095.0" type="qcurve" smooth="yes"/>
      <point x="938.0" y="1219.0"/>
      <point x="1103.0" y="1433.0"/>
      <point x="1306.0" y="1469.0" type="qcurve"/>
      <point x="1055.0" y="1467.0"/>
      <point x="842.0" y="1321.0"/>
      <point x="791.0" y="1079.0" type="qcurve" smooth="yes"/>
      <point x="713.0" y="747.0" type="line"/>
      <point x="485.0" y="-336.0" type="line"/>
    </contour>
  </outline>
</glyph>
<glyph name="emdash" format="2">
  <advance width="2048"/>
  <unicode hex="2014"/>
  <outline>
    <contour>
      <point x="178.0" y="518.0" type="line"/>
      <point x="178.0" y="764.0" type="line"/>
      <point x="931.0" y="762.0" type="line"/>
      <point x="1715.0" y="764.0" type="line"/>
      <point x="1715.0" y="518.0" type="line"/>
      <point x="931.0" y="526.0" type="line"/>
    </contour>
  </outline>
</glyph>
<glyph name="quotedblright" format="2">
  <advance width="1122"/>
  <unicode hex="201D"/>
  <outline>
    <contour>
      <point x="667.0" y="915.0" type="line"/>
      <point x="772.0" y="977.0"/>
      <point x="886.0" y="1071.0"/>
      <point x="917.0" y="1128.0" type="qcurve"/>
      <point x="802.0" y="1126.0"/>
      <point x="676.0" y="1232.0"/>
      <point x="676.0" y="1324.0" type="qcurve" smooth="yes"/>
      <point x="676.0" y="1400.0"/>
      <point x="790.0" y="1515.0"/>
      <point x="877.0" y="1515.0" type="qcurve" smooth="yes"/>
      <point x="967.0" y="1515.0"/>
      <point x="1089.0" y="1409.0"/>
      <point x="1089.0" y="1287.0" type="qcurve" smooth="yes"/>
      <point x="1089.0" y="1149.0"/>
      <point x="882.0" y="944.0"/>
      <point x="699.0" y="869.0" type="qcurve"/>
    </contour>
    <contour>
      <point x="154.0" y="915.0" type="line"/>
      <point x="259.0" y="977.0"/>
      <point x="373.0" y="1071.0"/>
      <point x="404.0" y="1128.0" type="qcurve"/>
      <point x="289.0" y="1126.0"/>
      <point x="163.0" y="1232.0"/>
      <point x="163.0" y="1324.0" type="qcurve" smooth="yes"/>
      <point x="163.0" y="1400.0"/>
      <point x="277.0" y="1515.0"/>
      <point x="364.0" y="1515.0" type="qcurve" smooth="yes"/>
      <point x="454.0" y="1515.0"/>
      <point x="576.0" y="1409.0"/>
      <point x="576.0" y="1287.0" type="qcurve" smooth="yes"/>
      <point x="576.0" y="1149.0"/>
      <point x="369.0" y="944.0"/>
      <point x="186.0" y="869.0" type="qcurve"/>
    </contour>
  </outline>
</glyph>
<glyph name="dagger" format="2">
  <advance width="1024"/>
  <unicode hex="2020"/>
  <outline>
    <contour>
      <point x="280.0" y="-480.0" type="line"/>
      <point x="307.0" y="-17.0" type="line"/>
      <point x="449.0" y="350.0" type="line"/>
      <point x="574.0" y="930.0" type="line"/>
      <point x="621.0" y="1450.0" type="line"/>
      <point x="693.0" y="1506.0" type="line"/>
      <point x="814.0" y="1506.0" type="line"/>
      <point x="857.0" y="1426.0" type="line"/>
      <point x="675.0" y="930.0" type="line"/>
      <point x="550.0" y="350.0" type="line"/>
      <point x="513.0" y="-39.0" type="line"/>
      <point x="341.0" y="-480.0" type="line"/>
    </contour>
    <contour>
      <point x="138.0" y="904.0" type="line"/>
      <point x="144.0" y="939.0" type="line"/>
      <point x="664.0" y="972.0" type="line"/>
      <point x="1159.0" y="939.0" type="line"/>
      <point x="1154.0" y="904.0" type="line"/>
      <point x="625.0" y="916.0" type="line"/>
    </contour>
  </outline>
</glyph>
<glyph name="daggerdbl" format="2">
  <advance width="1067"/>
  <unicode hex="2021"/>
  <outline>
    <contour>
      <point x="257.0" y="-480.0" type="line"/>
      <point x="279.0" y="-19.0" type="line"/>
      <point x="421.0" y="350.0" type="line"/>
      <point x="544.0" y="930.0" type="line"/>
      <point x="587.0" y="1450.0" type="line"/>
      <point x="659.0" y="1506.0" type="line"/>
      <point x="780.0" y="1506.0" type="line"/>
      <point x="823.0" y="1426.0" type="line"/>
      <point x="645.0" y="930.0" type="line"/>
      <point x="522.0" y="350.0" type="line"/>
      <point x="491.0" y="-37.0" type="line"/>
      <point x="318.0" y="-480.0" type="line"/>
    </contour>
    <contour>
      <point x="112.0" y="904.0" type="line"/>
      <point x="117.0" y="939.0" type="line"/>
      <point x="626.0" y="972.0" type="line"/>
      <point x="1102.0" y="939.0" type="line"/>
      <point x="1096.0" y="904.0" type="line"/>
      <point x="587.0" y="916.0" type="line"/>
    </contour>
    <contour>
      <point x="7.0" y="415.0" type="line"/>
      <point x="11.0" y="450.0" type="line"/>
      <point x="520.0" y="483.0" type="line"/>
      <point x="995.0" y="450.0" type="line"/>
      <point x="991.0" y="415.0" type="line"/>
      <point x="480.0" y="427.0" type="line"/>
    </contour>
  </outline>
</glyph>
<glyph name="bullet" format="2">
  <advance width="928"/>
  <unicode hex="2022"/>
  <outline>
    <contour>
      <point x="13.0" y="743.0" type="qcurve" smooth="yes"/>
      <point x="13.0" y="888.0"/>
      <point x="215.0" y="1103.0"/>
      <point x="373.0" y="1103.0" type="qcurve" smooth="yes"/>
      <point x="531.0" y="1103.0"/>
      <point x="733.0" y="888.0"/>
      <point x="733.0" y="743.0" type="qcurve" smooth="yes"/>
      <point x="733.0" y="600.0"/>
      <point x="531.0" y="385.0"/>
      <point x="373.0" y="385.0" type="qcurve" smooth="yes"/>
      <point x="215.0" y="385.0"/>
      <point x="13.0" y="600.0"/>
    </contour>
  </outline>
</glyph>
<glyph name="minute" format="2">
  <advance width="742"/>
  <unicode hex="2032"/>
  <outline>
    <contour>
      <point x="236.0" y="964.0" type="line"/>
      <point x="357.0" y="1387.0" type="line" smooth="yes"/>
      <point x="374.0" y="1443.0"/>
      <point x="469.0" y="1498.0"/>
      <point x="530.0" y="1476.0" type="qcurve" smooth="yes"/>
      <point x="588.0" y="1454.0"/>
      <point x="582.0" y="1327.0"/>
      <point x="537.0" y="1280.0" type="qcurve" smooth="yes"/>
      <point x="267.0" y="956.0" type="line"/>
    </contour>
  </outline>
</glyph>
<glyph name="naira" format="2">
  <advance width="1622"/>
  <unicode hex="20A6"/>
  <outline>
    <contour>
      <point x="1474.0" y="609.0" type="line"/>
      <point x="1276.0" y="609.0" type="line"/>
      <point x="1271.0" y="600.0" type="line"/>
      <point x="812.0" y="600.0" type="line"/>
      <point x="806.0" y="665.0" type="line"/>
      <point x="1284.0" y="665.0" type="line"/>
      <point x="1287.0" y="665.0" type="line"/>
      <point x="1486.0" y="665.0" type="line"/>
    </contour>
    <contour>
      <point x="-110.0" y="609.0" type="line"/>
      <point x="-98.0" y="665.0" type="line"/>
      <point x="61.0" y="665.0" type="line"/>
      <point x="58.0" y="665.0" type="line"/>
      <point x="806.0" y="665.0" type="line"/>
      <point x="804.0" y="609.0" type="line"/>
      <point x="51.0" y="609.0" type="line"/>
      <point x="50.0" y="609.0" type="line"/>
    </contour>
    <contour>
      <point x="1517.0" y="940.0" type="line"/>
      <point x="1333.0" y="940.0" type="line"/>
      <point x="1335.0" y="940.0" type="line"/>
      <point x="643.0" y="940.0" type="line"/>
      <point x="649.0" y="996.0" type="line"/>
      <point x="1344.0" y="996.0" type="line"/>
      <point x="1347.0" y="996.0" type="line"/>
      <point x="1531.0" y="996.0" type="line"/>
    </contour>
    <contour>
      <point x="-71.0" y="940.0" type="line"/>
      <point x="-57.0" y="996.0" type="line"/>
      <point x="128.0" y="996.0" type="line"/>
      <point x="123.0" y="1002.0" type="line"/>
      <point x="645.0" y="1002.0" type="line"/>
      <point x="643.0" y="939.0" type="line"/>
      <point x="116.0" y="939.0" type="line"/>
      <point x="114.0" y="940.0" type="line"/>
    </contour>
    <contour>
      <point x="-280.0" y="0.0" type="line"/>
      <point x="-256.0" y="55.0" type="line"/>
      <point x="-105.0" y="95.0" type="line"/>
      <point x="32.0" y="753.0" type="line"/>
      <point x="162.0" y="1406.0" type="line"/>
      <point x="-5.0" y="1443.0" type="line"/>
      <point x="6.0" y="1500.0" type="line"/>
      <point x="553.0" y="1500.0" type="line"/>
      <point x="863.0" y="922.0" type="line"/>
      <point x="1194.0" y="301.0" type="line"/>
      <point x="1299.0" y="805.0" type="line"/>
      <point x="1398.0" y="1398.0" type="line"/>
      <point x="1199.0" y="1442.0" type="line"/>
      <point x="1212.0" y="1500.0" type="line"/>
      <point x="1686.0" y="1500.0" type="line"/>
      <point x="1674.0" y="1442.0" type="line"/>
      <point x="1509.0" y="1398.0" type="line"/>
      <point x="1395.0" y="778.0" type="line"/>
      <point x="1242.0" y="0.0" type="line"/>
      <point x="905.0" y="0.0" type="line"/>
      <point x="570.0" y="601.0" type="line"/>
      <point x="239.0" y="1265.0" type="line"/>
      <point x="119.0" y="688.0" type="line"/>
      <point x="-1.0" y="95.0" type="line"/>
      <point x="213.0" y="55.0" type="line"/>
      <point x="196.0" y="0.0" type="line"/>
    </contour>
  </outline>
</glyph>
<glyph name="dong" format="2">
  <advance width="1866"/>
  <unicode hex="20AB"/>
  <outline>
    <contour>
      <point x="-170.0" y="-184.0" type="line"/>
      <point x="-137.0" y="-120.0" type="line"/>
      <point x="742.0" y="-117.0" type="line"/>
      <point x="1561.0" y="-116.0" type="line"/>
      <point x="1531.0" y="-177.0" type="line"/>
      <point x="712.0" y="-179.0" type="line"/>
    </contour>
    <contour>
      <point x="818.0" y="1094.0" type="line"/>
      <point x="833.0" y="1176.0" type="line"/>
      <point x="1343.0" y="1176.0" type="line"/>
      <point x="1758.0" y="1176.0" type="line"/>
      <point x="1738.0" y="1098.0" type="line"/>
      <point x="1322.0" y="1098.0" type="line"/>
    </contour>
    <contour>
      <point x="-43.0" y="249.0" type="qcurve" smooth="yes"/>
      <point x="-60.0" y="502.0"/>
      <point x="451.0" y="853.0"/>
      <point x="944.0" y="853.0" type="qcurve" smooth="yes"/>
      <point x="1124.0" y="853.0" type="line"/>
      <point x="1233.0" y="1415.0" type="line"/>
      <point x="962.0" y="1398.0" type="line"/>
      <point x="966.0" y="1467.0" type="line"/>
      <point x="1611.0" y="1572.0" type="line"/>
      <point x="1636.0" y="1526.0" type="line"/>
      <point x="1430.0" y="421.0" type="line"/>
      <point x="1374.0" y="110.0" type="line"/>
      <point x="1695.0" y="119.0" type="line"/>
      <point x="1692.0" y="68.0" type="line"/>
      <point x="1068.0" y="1.0" type="line"/>
      <point x="1013.0" y="13.0" type="line"/>
      <point x="1027.0" y="233.0" type="line"/>
      <point x="916.0" y="113.0"/>
      <point x="637.0" y="-15.0"/>
      <point x="372.0" y="-15.0" type="qcurve" smooth="yes"/>
      <point x="180.0" y="-15.0"/>
      <point x="-36.0" y="119.0"/>
    </contour>
    <contour>
      <point x="368.0" y="282.0" type="qcurve" smooth="yes"/>
      <point x="370.0" y="156.0"/>
      <point x="465.0" y="115.0"/>
      <point x="553.0" y="115.0" type="qcurve" smooth="yes"/>
      <point x="720.0" y="115.0"/>
      <point x="1008.0" y="353.0"/>
      <point x="1047.0" y="472.0" type="qcurve" smooth="yes"/>
      <point x="1116.0" y="732.0" type="line"/>
      <point x="1108.0" y="740.0"/>
      <point x="1003.0" y="785.0"/>
      <point x="882.0" y="785.0" type="qcurve" smooth="yes"/>
      <point x="663.0" y="785.0"/>
      <point x="364.0" y="430.0"/>
    </contour>
  </outline>
</glyph>
<glyph name="kip" format="2">
  <advance width="1869"/>
  <unicode hex="20AD"/>
  <outline>
    <contour>
      <point x="1639.0" y="846.0" type="line"/>
      <point x="869.0" y="846.0" type="line"/>
      <point x="869.0" y="842.0" type="line"/>
      <point x="823.0" y="842.0" type="line"/>
      <point x="916.0" y="924.0" type="line"/>
      <point x="932.0" y="924.0" type="line"/>
      <point x="932.0" y="914.0" type="line"/>
      <point x="1642.0" y="914.0" type="line"/>
    </contour>
    <contour>
      <point x="-19.0" y="846.0" type="line"/>
      <point x="-12.0" y="914.0" type="line"/>
      <point x="286.0" y="914.0" type="line"/>
      <point x="286.0" y="922.0" type="line"/>
      <point x="495.0" y="922.0" type="line"/>
      <point x="333.0" y="838.0" type="line"/>
      <point x="279.0" y="838.0" type="line"/>
      <point x="279.0" y="846.0" type="line"/>
    </contour>
    <contour>
      <point x="-182.0" y="0.0" type="line"/>
      <point x="-153.0" y="55.0" type="line"/>
      <point x="-34.0" y="80.0" type="line"/>
      <point x="142.0" y="858.0" type="line"/>
      <point x="250.0" y="1409.0" type="line"/>
      <point x="104.0" y="1441.0" type="line"/>
      <point x="112.0" y="1500.0" type="line"/>
      <point x="885.0" y="1500.0" type="line"/>
      <point x="857.0" y="1441.0" type="line"/>
      <point x="709.0" y="1409.0" type="line"/>
      <point x="582.0" y="826.0" type="line"/>
      <point x="415.0" y="80.0" type="line"/>
      <point x="560.0" y="55.0" type="line"/>
      <point x="544.0" y="0.0" type="line"/>
    </contour>
    <contour>
      <point x="370.0" y="452.0" type="line"/>
      <point x="390.0" y="543.0" type="line"/>
      <point x="1596.0" y="1427.0" type="line"/>
      <point x="1370.0" y="1442.0" type="line"/>
      <point x="1384.0" y="1500.0" type="line"/>
      <point x="2017.0" y="1500.0" type="line"/>
      <point x="2003.0" y="1442.0" type="line"/>
      <point x="1798.0" y="1427.0" type="line"/>
    </contour>
    <contour>
      <point x="861.0" y="903.0" type="line"/>
      <point x="1219.0" y="1199.0" type="line"/>
      <point x="1539.0" y="80.0" type="line"/>
      <point x="1711.0" y="55.0" type="line"/>
      <point x="1702.0" y="0.0" type="line"/>
      <point x="889.0" y="0.0" type="line"/>
      <point x="902.0" y="55.0" type="line"/>
      <point x="1062.0" y="80.0" type="line"/>
    </contour>
  </outline>
</glyph>
<glyph name="cedi" format="2">
  <advance width="1448"/>
  <unicode hex="20B5"/>
  <outline>
    <contour>
      <point x="11.0" y="794.0" type="qcurve" smooth="yes"/>
      <point x="85.0" y="1134.0"/>
      <point x="633.0" y="1440.0"/>
      <point x="958.0" y="1396.0" type="qcurve" smooth="yes"/>
      <point x="1160.0" y="1367.0"/>
      <point x="1374.0" y="1165.0"/>
      <point x="1346.0" y="992.0" type="qcurve"/>
      <point x="1182.0" y="992.0" type="line"/>
      <point x="1205.0" y="1134.0"/>
      <point x="1058.0" y="1298.0"/>
      <point x="965.0" y="1320.0" type="qcurve" smooth="yes"/>
      <point x="769.0" y="1362.0"/>
      <point x="499.0" y="1037.0"/>
      <point x="448.0" y="818.0" type="qcurve" smooth="yes"/>
      <point x="379.0" y="532.0"/>
      <point x="439.0" y="189.0"/>
      <point x="612.0" y="175.0" type="qcurve" smooth="yes"/>
      <point x="798.0" y="158.0"/>
      <point x="1061.0" y="296.0"/>
      <point x="1172.0" y="428.0" type="qcurve"/>
      <point x="1197.0" y="414.0" type="line"/>
      <point x="1245.0" y="366.0" type="line"/>
      <point x="1097.0" y="193.0"/>
      <point x="801.0" y="53.0"/>
      <point x="548.0" y="68.0" type="qcurve" smooth="yes"/>
      <point x="236.0" y="86.0"/>
      <point x="-69.0" y="429.0"/>
    </contour>
    <contour>
      <point x="585.0" y="-90.0" type="line"/>
      <point x="649.0" y="144.0" type="line"/>
      <point x="649.0" y="144.0" type="line"/>
      <point x="805.0" y="811.0" type="line"/>
      <point x="843.0" y="803.0" type="line"/>
      <point x="685.0" y="117.0" type="line"/>
      <point x="686.0" y="118.0" type="line"/>
      <point x="637.0" y="-99.0" type="line"/>
    </contour>
    <contour>
      <point x="980.0" y="1575.0" type="line"/>
      <point x="1029.0" y="1580.0" type="line"/>
      <point x="977.0" y="1381.0" type="line"/>
      <point x="973.0" y="1381.0" type="line"/>
      <point x="843.0" y="803.0" type="line"/>
      <point x="805.0" y="811.0" type="line"/>
      <point x="934.0" y="1390.0" type="line"/>
      <point x="933.0" y="1390.0" type="line"/>
    </contour>
  </outline>
</glyph>
<glyph name="manat" format="2">
  <advance width="1737"/>
  <unicode hex="20BC"/>
  <outline>
    <contour>
      <point x="587.0" y="260.0" type="line"/>
      <point x="667.0" y="662.0" type="line"/>
      <point x="826.0" y="1409.0" type="line"/>
      <point x="839.0" y="1533.0" type="line"/>
      <point x="929.0" y="1541.0" type="line"/>
      <point x="900.0" y="1409.0" type="line"/>
      <point x="795.0" y="762.0" type="line"/>
      <point x="711.0" y="330.0" type="line"/>
    </contour>
    <contour>
      <point x="1420.0" y="31.0" type="line"/>
      <point x="1412.0" y="0.0" type="line"/>
      <point x="766.0" y="0.0" type="line"/>
      <point x="774.0" y="31.0" type="line"/>
      <point x="938.0" y="56.0" type="line"/>
      <point x="1018.0" y="456.0" type="line" smooth="yes"/>
      <point x="1113.0" y="947.0"/>
      <point x="1145.0" y="1168.0"/>
      <point x="1141.0" y="1168.0" type="qcurve" smooth="yes"/>
      <point x="1134.0" y="1281.0"/>
      <point x="1015.0" y="1318.0"/>
      <point x="864.0" y="1318.0" type="qcurve" smooth="yes"/>
      <point x="678.0" y="1318.0"/>
      <point x="438.0" y="1125.0"/>
      <point x="393.0" y="941.0" type="qcurve" smooth="yes"/>
      <point x="276.0" y="360.0" type="line"/>
      <point x="202.0" y="57.0" type="line"/>
      <point x="413.0" y="31.0" type="line"/>
      <point x="405.0" y="0.0" type="line"/>
      <point x="-228.0" y="0.0" type="line"/>
      <point x="-220.0" y="31.0" type="line"/>
      <point x="4.0" y="57.0" type="line"/>
      <point x="70.0" y="360.0" type="line"/>
      <point x="192.0" y="984.0" type="line" smooth="yes"/>
      <point x="233.0" y="1199.0"/>
      <point x="657.0" y="1443.0"/>
      <point x="919.0" y="1443.0" type="qcurve" smooth="yes"/>
      <point x="1188.0" y="1443.0"/>
      <point x="1484.0" y="1292.0"/>
      <point x="1496.0" y="1117.0" type="qcurve" smooth="yes"/>
      <point x="1503.0" y="1138.0"/>
      <point x="1481.0" y="907.0"/>
      <point x="1384.0" y="456.0" type="qcurve" smooth="yes"/>
      <point x="1304.0" y="56.0" type="line"/>
    </contour>
  </outline>
</glyph>
<glyph name="ruble" format="2">
  <advance width="1860"/>
  <unicode hex="20BD"/>
  <outline>
    <contour>
      <point x="-46.0" y="375.0" type="line"/>
      <point x="-30.0" y="453.0" type="line"/>
      <point x="1044.0" y="453.0" type="line"/>
      <point x="1024.0" y="375.0" type="line"/>
    </contour>
    <contour>
      <point x="-153.0" y="0.0" type="line"/>
      <point x="-104.0" y="55.0" type="line"/>
      <point x="14.0" y="78.0" type="line"/>
      <point x="185.0" y="836.0" type="line"/>
      <point x="309.0" y="1409.0" type="line"/>
      <point x="151.0" y="1442.0" type="line"/>
      <point x="160.0" y="1500.0" type="line"/>
      <point x="1194.0" y="1500.0" type="line" smooth="yes"/>
      <point x="1424.0" y="1500.0"/>
      <point x="1732.0" y="1346.0"/>
      <point x="1717.0" y="1122.0" type="qcurve" smooth="yes"/>
      <point x="1699.0" y="878.0"/>
      <point x="1332.0" y="612.0"/>
      <point x="840.0" y="612.0" type="qcurve" smooth="yes"/>
      <point x="403.0" y="612.0"/>
      <point x="97.0" y="663.0"/>
      <point x="50.0" y="690.0" type="qcurve"/>
      <point x="60.0" y="776.0" type="line"/>
      <point x="116.0" y="751.0"/>
      <point x="458.0" y="710.0"/>
      <point x="832.0" y="710.0" type="qcurve" smooth="yes"/>
      <point x="1037.0" y="710.0"/>
      <point x="1246.0" y="865.0"/>
      <point x="1274.0" y="1100.0" type="qcurve" smooth="yes"/>
      <point x="1291.0" y="1283.0"/>
      <point x="1131.0" y="1432.0"/>
      <point x="972.0" y="1432.0" type="qcurve" smooth="yes"/>
      <point x="827.0" y="1432.0" type="line"/>
      <point x="794.0" y="1408.0" type="line"/>
      <point x="644.0" y="774.0" type="line"/>
      <point x="503.0" y="85.0" type="line"/>
      <point x="665.0" y="55.0" type="line"/>
      <point x="644.0" y="0.0" type="line"/>
    </contour>
  </outline>
</glyph>
<glyph name="divisionslash" format="2">
  <advance width="803"/>
  <unicode hex="2215"/>
  <outline>
    <contour>
      <point x="-151.0" y="-85.0" type="line"/>
      <point x="699.0" y="1593.0" type="line"/>
      <point x="876.0" y="1517.0" type="line"/>
      <point x="28.0" y="-160.0" type="line"/>
    </contour>
  </outline>
</glyph>
<glyph name="rightanglebracket" format="2">
  <advance width="1342"/>
  <unicode hex="27E9"/>
  <outline>
    <contour>
      <point x="-56.0" y="-155.0" type="line"/>
      <point x="-140.0" y="79.0" type="line"/>
      <point x="747.0" y="773.0" type="line"/>
      <point x="159.0" y="1349.0" type="line"/>
      <point x="268.0" y="1508.0" type="line"/>
      <point x="1119.0" y="815.0" type="line"/>
      <point x="1119.0" y="730.0" type="line"/>
    </contour>
  </outline>
</glyph>
<glyph name="fi" format="2">
  <advance width="1913"/>
  <unicode hex="FB01"/>
  <outline>
    <contour>
      <point x="132.0" y="253.0" type="qcurve" smooth="yes"/>
      <point x="227.0" y="852.0" type="line"/>
      <point x="229.0" y="857.0" type="line"/>
      <point x="285.0" y="1171.0" type="line" smooth="yes"/>
      <point x="292.0" y="1245.0"/>
      <point x="598.0" y="1548.0"/>
      <point x="911.0" y="1550.0" type="qcurve" smooth="yes"/>
      <point x="1144.0" y="1552.0"/>
      <point x="1390.0" y="1426.0"/>
      <point x="1390.0" y="1306.0" type="qcurve" smooth="yes"/>
      <point x="1390.0" y="1210.0"/>
      <point x="1304.0" y="1124.0"/>
      <point x="1201.0" y="1124.0" type="qcurve" smooth="yes"/>
      <point x="1186.0" y="1152.0"/>
      <point x="1172.0" y="1256.0"/>
      <point x="1173.0" y="1299.0" type="qcurve" smooth="yes"/>
      <point x="1174.0" y="1371.0"/>
      <point x="1086.0" y="1482.0"/>
      <point x="978.0" y="1483.0" type="qcurve" smooth="yes"/>
      <point x="849.0" y="1485.0"/>
      <point x="772.0" y="1258.0"/>
      <point x="754.0" y="1158.0" type="qcurve" smooth="yes"/>
      <point x="706.0" y="858.0" type="line"/>
      <point x="705.0" y="851.0" type="line"/>
      <point x="647.0" y="489.0" type="line" smooth="yes"/>
      <point x="581.0" y="24.0"/>
      <point x="46.0" y="-479.0"/>
      <point x="-231.0" y="-479.0" type="qcurve"/>
      <point x="-493.0" y="-419.0" type="line"/>
      <point x="-470.0" y="-360.0" type="line"/>
      <point x="-289.0" y="-360.0" type="line" smooth="yes"/>
      <point x="-88.0" y="-361.0"/>
      <point x="84.0" y="-68.0"/>
    </contour>
    <contour>
      <point x="-10.0" y="776.0" type="line"/>
      <point x="-3.0" y="862.0" type="line"/>
      <point x="252.0" y="867.0" type="line"/>
      <point x="1208.0" y="880.0" type="line"/>
      <point x="1197.0" y="796.0" type="line"/>
      <point x="608.0" y="781.0" type="line"/>
      <point x="249.0" y="770.0" type="line"/>
    </contour>
    <contour>
      <point x="1081.0" y="-11.0" type="line"/>
      <point x="1022.0" y="111.0" type="line"/>
      <point x="1127.0" y="527.0" type="line"/>
      <point x="1183.0" y="762.0" type="line"/>
      <point x="979.0" y="805.0" type="line"/>
      <point x="982.0" y="821.0" type="line"/>
      <point x="1557.0" y="948.0" type="line"/>
      <point x="1669.0" y="934.0" type="line"/>
      <point x="1618.0" y="866.0" type="line"/>
      <point x="1615.0" y="779.0" type="line"/>
      <point x="1500.0" y="133.0" type="line"/>
      <point x="1729.0" y="128.0" type="line"/>
      <point x="1720.0" y="69.0" type="line"/>
    </contour>
  </outline>
</glyph>
<glyph name="circumflexcombstack.case" format="2">
  <advance width="896"/>
  <outline>
    <contour>
      <point x="781.0" y="2029.0" type="qcurve" smooth="yes"/>
      <point x="808.0" y="2027.0"/>
      <point x="872.0" y="1958.0"/>
      <point x="892.0" y="1895.0" type="qcurve" smooth="yes"/>
      <point x="1019.0" y="1594.0" type="line"/>
      <point x="952.0" y="1566.0" type="line"/>
      <point x="745.0" y="1840.0" type="line"/>
      <point x="362.0" y="1574.0" type="line"/>
      <point x="318.0" y="1603.0" type="line"/>
      <point x="600.0" y="1900.0" type="line" smooth="yes"/>
      <point x="652.0" y="1959.0"/>
      <point x="754.0" y="2031.0"/>
    </contour>
  </outline>
</glyph>
<glyph name="dblgravecomb.case" format="2">
  <advance width="896"/>
  <outline>
    <contour>
      <point x="-89.0" y="1940.0" type="qcurve" smooth="yes"/>
      <point x="-82.0" y="1972.0"/>
      <point x="-5.0" y="2013.0"/>
      <point x="32.0" y="2010.0" type="qcurve" smooth="yes"/>
      <point x="61.0" y="2007.0"/>
      <point x="114.0" y="1969.0"/>
      <point x="132.0" y="1934.0" type="qcurve" smooth="yes"/>
      <point x="306.0" y="1608.0" type="line"/>
      <point x="268.0" y="1596.0" type="line"/>
      <point x="-66.0" y="1827.0" type="line" smooth="yes"/>
      <point x="-92.0" y="1842.0"/>
      <point x="-98.0" y="1919.0"/>
    </contour>
    <contour>
      <point x="307.0" y="1942.0" type="qcurve" smooth="yes"/>
      <point x="314.0" y="1974.0"/>
      <point x="390.0" y="2015.0"/>
      <point x="427.0" y="2011.0" type="qcurve" smooth="yes"/>
      <point x="456.0" y="2008.0"/>
      <point x="505.0" y="1975.0"/>
      <point x="521.0" y="1941.0" type="qcurve" smooth="yes"/>
      <point x="691.0" y="1611.0" type="line"/>
      <point x="653.0" y="1598.0" type="line"/>
      <point x="323.0" y="1834.0" type="line" smooth="yes"/>
      <point x="299.0" y="1850.0"/>
      <point x="297.0" y="1920.0"/>
    </contour>
  </outline>
</glyph>
<glyph name="diagonalbarO" format="2">
  <advance width="623"/>
  <outline>
    <contour>
      <point x="-225.0" y="-107.0" type="line"/>
      <point x="-112.0" y="69.0" type="line"/>
      <point x="-102.0" y="69.0" type="line"/>
      <point x="348.0" y="813.0" type="line"/>
      <point x="383.0" y="791.0" type="line"/>
      <point x="-66.0" y="42.0" type="line"/>
      <point x="-56.0" y="42.0" type="line"/>
      <point x="-159.0" y="-117.0" type="line"/>
    </contour>
    <contour>
      <point x="815.0" y="1606.0" type="line"/>
      <point x="882.0" y="1606.0" type="line"/>
      <point x="762.0" y="1412.0" type="line"/>
      <point x="752.0" y="1411.0" type="line"/>
      <point x="383.0" y="791.0" type="line"/>
      <point x="348.0" y="813.0" type="line"/>
      <point x="713.0" y="1429.0" type="line"/>
      <point x="703.0" y="1429.0" type="line"/>
    </contour>
  </outline>
</glyph>
<glyph name="diagonalbarl" format="2">
  <advance width="1164"/>
  <outline>
    <contour>
      <point x="536.0" y="681.0" type="line"/>
      <point x="1073.0" y="888.0" type="line"/>
      <point x="1093.0" y="826.0" type="line"/>
      <point x="561.0" y="627.0" type="line"/>
      <point x="33.0" y="426.0" type="line"/>
      <point x="13.0" y="487.0" type="line"/>
    </contour>
  </outline>
</glyph>
<glyph name="dieresisbelowcomb.case" format="2">
  <advance width="896"/>
  <outline>
    <contour>
      <point x="-54.0" y="-293.0" type="qcurve" smooth="yes"/>
      <point x="-54.0" y="-228.0"/>
      <point x="26.0" y="-150.0"/>
      <point x="94.0" y="-150.0" type="qcurve" smooth="yes"/>
      <point x="160.0" y="-150.0"/>
      <point x="242.0" y="-230.0"/>
      <point x="242.0" y="-293.0" type="qcurve" smooth="yes"/>
      <point x="242.0" y="-358.0"/>
      <point x="161.0" y="-437.0"/>
      <point x="94.0" y="-437.0" type="qcurve" smooth="yes"/>
      <point x="28.0" y="-437.0"/>
      <point x="-54.0" y="-357.0"/>
    </contour>
    <contour>
      <point x="296.0" y="-293.0" type="qcurve" smooth="yes"/>
      <point x="296.0" y="-228.0"/>
      <point x="377.0" y="-150.0"/>
      <point x="444.0" y="-150.0" type="qcurve" smooth="yes"/>
      <point x="510.0" y="-150.0"/>
      <point x="592.0" y="-230.0"/>
      <point x="592.0" y="-293.0" type="qcurve" smooth="yes"/>
      <point x="592.0" y="-358.0"/>
      <point x="512.0" y="-437.0"/>
      <point x="444.0" y="-437.0" type="qcurve" smooth="yes"/>
      <point x="378.0" y="-437.0"/>
      <point x="296.0" y="-357.0"/>
    </contour>
  </outline>
</glyph>
<glyph name="dieresiscomb.case" format="2">
  <advance width="896"/>
  <outline>
    <contour>
      <point x="192.0" y="1707.0" type="qcurve" smooth="yes"/>
      <point x="192.0" y="1780.0"/>
      <point x="258.0" y="1844.0"/>
      <point x="336.0" y="1844.0" type="qcurve" smooth="yes"/>
      <point x="404.0" y="1844.0"/>
      <point x="478.0" y="1770.0"/>
      <point x="478.0" y="1707.0" type="qcurve" smooth="yes"/>
      <point x="478.0" y="1634.0"/>
      <point x="413.0" y="1567.0"/>
      <point x="336.0" y="1567.0" type="qcurve" smooth="yes"/>
      <point x="266.0" y="1567.0"/>
      <point x="192.0" y="1641.0"/>
    </contour>
    <contour>
      <point x="542.0" y="1707.0" type="qcurve" smooth="yes"/>
      <point x="542.0" y="1780.0"/>
      <point x="609.0" y="1844.0"/>
      <point x="686.0" y="1844.0" type="qcurve" smooth="yes"/>
      <point x="754.0" y="1844.0"/>
      <point x="828.0" y="1770.0"/>
      <point x="828.0" y="1707.0" type="qcurve" smooth="yes"/>
      <point x="828.0" y="1634.0"/>
      <point x="764.0" y="1567.0"/>
      <point x="686.0" y="1567.0" type="qcurve" smooth="yes"/>
      <point x="616.0" y="1567.0"/>
      <point x="542.0" y="1641.0"/>
    </contour>
  </outline>
</glyph>
<glyph name="dollar.rvrn2" format="2">
  <advance width="1060"/>
  <outline>
    <contour>
      <point x="-235.22307692307692" y="238.18461538461537" type="qcurve"/>
      <point x="-126.85384615384615" y="292.86923076923074" type="line"/>
      <point x="-100.56153846153846" y="219.16923076923078"/>
      <point x="53.96153846153848" y="91.14615384615385"/>
      <point x="245.63846153846157" y="91.14615384615385" type="qcurve" smooth="yes"/>
      <point x="464.0769230769231" y="91.14615384615385"/>
      <point x="703.8384615384615" y="232.15384615384616"/>
      <point x="717.9461538461538" y="361.10769230769233" type="qcurve" smooth="yes"/>
      <point x="735.0" y="488.7846153846154"/>
      <point x="518.1846153846154" y="590.4615384615385"/>
      <point x="333.83846153846156" y="625.8384615384615" type="qcurve" smooth="yes"/>
      <point x="92.86923076923074" y="685.0"/>
      <point x="-112.18461538461537" y="939.0846153846153"/>
      <point x="-88.18461538461537" y="1104.7307692307693" type="qcurve" smooth="yes"/>
      <point x="-62.18461538461537" y="1286.623076923077"/>
      <point x="223.3461538461538" y="1500.2692307692307"/>
      <point x="554.6461538461539" y="1500.2692307692307" type="qcurve" smooth="yes"/>
      <point x="811.223076923077" y="1500.2692307692307"/>
      <point x="992.0461538461539" y="1404.7230769230769"/>
      <point x="1036.7923076923078" y="1337.5076923076922" type="qcurve"/>
      <point x="959.5846153846154" y="1282.0692307692307" type="line"/>
      <point x="916.5615384615385" y="1326.6923076923076"/>
      <point x="674.1846153846154" y="1410.9076923076923"/>
      <point x="523.1" y="1410.9076923076923" type="qcurve" smooth="yes"/>
      <point x="324.20769230769235" y="1410.9076923076923"/>
      <point x="191.13076923076926" y="1317.9076923076923"/>
      <point x="180.13076923076926" y="1239.2307692307693" type="qcurve" smooth="yes"/>
      <point x="167.13076923076926" y="1137.6615384615384"/>
      <point x="301.67692307692306" y="968.0769230769231"/>
      <point x="529.0769230769231" y="927.1615384615385" type="qcurve" smooth="yes"/>
      <point x="769.0461538461539" y="874.5153846153846"/>
      <point x="1041.8615384615384" y="647.6769230769231"/>
      <point x="1019.8076923076924" y="474.03076923076924" type="qcurve" smooth="yes"/>
      <point x="994.7538461538461" y="227.7846153846154"/>
      <point x="528.7153846153847" y="8.353846153846153"/>
      <point x="255.2846153846154" y="8.353846153846153" type="qcurve" smooth="yes"/>
      <point x="66.21538461538461" y="8.353846153846153"/>
      <point x="-183.30769230769232" y="124.18461538461538"/>
    </contour>
    <contour>
      <point x="272.9923076923077" y="-156.8846153846154" type="line"/>
      <point x="307.6923076923077" y="20.77692307692308" type="line"/>
      <point x="320.0" y="21.0" type="line"/>
      <point x="460.0" y="805.0" type="line"/>
      <point x="490.0" y="774.0" type="line"/>
      <point x="355.0" y="21.0" type="line"/>
      <point x="370.36923076923074" y="20.77692307692308" type="line"/>
      <point x="338.1" y="-141.8923076923077" type="line"/>
    </contour>
    <contour>
      <point x="591.7153846153847" y="1582.5615384615385" type="line"/>
      <point x="654.7692307692307" y="1593.176923076923" type="line"/>
      <point x="624.9076923076923" y="1440.7076923076922" type="line"/>
      <point x="611.0" y="1441.0" type="line"/>
      <point x="491.0" y="786.0" type="line"/>
      <point x="461.0" y="817.0" type="line"/>
      <point x="575.0" y="1441.0" type="line"/>
      <point x="563.2307692307693" y="1440.7076923076922" type="line"/>
    </contour>
  </outline>
</glyph>
<glyph name="engn" format="2">
  <advance width="1895"/>
  <outline>
    <contour>
      <point x="0.0" y="10.0" type="line"/>
      <point x="-1.0" y="138.0" type="line"/>
      <point x="94.0" y="458.0" type="line"/>
      <point x="157.0" y="807.0" type="line"/>
      <point x="-64.0" y="814.0" type="line"/>
      <point x="-58.0" y="877.0" type="line"/>
      <point x="426.0" y="969.0" type="line"/>
      <point x="626.0" y="955.0" type="line"/>
      <point x="593.0" y="702.0" type="line"/>
      <point x="585.0" y="680.0" type="line"/>
      <point x="486.0" y="194.0" type="line"/>
      <point x="540.0" y="28.0" type="line"/>
    </contour>
    <contour>
      <point x="537.0" y="667.0" type="line"/>
      <point x="717.0" y="828.0"/>
      <point x="1093.0" y="980.0"/>
      <point x="1286.0" y="980.0" type="qcurve" smooth="yes"/>
      <point x="1432.0" y="980.0"/>
      <point x="1577.0" y="734.0"/>
      <point x="1542.0" y="561.0" type="qcurve" smooth="yes"/>
      <point x="1433.0" y="0.0" type="line"/>
      <point x="954.0" y="0.0" type="line"/>
      <point x="1088.0" y="623.0" type="line" smooth="yes"/>
      <point x="1107.0" y="711.0"/>
      <point x="1051.0" y="799.0"/>
      <point x="1032.0" y="799.0" type="qcurve" smooth="yes"/>
      <point x="941.0" y="799.0"/>
      <point x="689.0" y="752.0"/>
      <point x="555.0" y="602.0" type="qcurve"/>
    </contour>
  </outline>
</glyph>
<glyph name="four.lf" format="2">
  <advance width="1432"/>
  <outline>
    <contour>
      <point x="-67.0" y="405.0" type="line"/>
      <point x="-86.0" y="500.0" type="line"/>
      <point x="1081.0" y="1523.0" type="line"/>
      <point x="1263.0" y="1448.0" type="line"/>
      <point x="1271.0" y="1398.0" type="line"/>
      <point x="1128.0" y="513.0" type="line"/>
      <point x="1123.0" y="486.0" type="line"/>
      <point x="1080.0" y="176.0" type="line"/>
      <point x="1080.0" y="43.0" type="line"/>
      <point x="650.0" y="-15.0" type="line"/>
      <point x="630.0" y="14.0" type="line"/>
      <point x="717.0" y="488.0" type="line"/>
      <point x="725.0" y="513.0" type="line"/>
      <point x="822.0" y="1105.0" type="line"/>
      <point x="136.0" y="577.0" type="line"/>
      <point x="140.0" y="567.0" type="line"/>
      <point x="950.0" y="560.0" type="line"/>
      <point x="1315.0" y="560.0" type="line"/>
      <point x="1283.0" y="404.0" type="line"/>
      <point x="939.0" y="398.0" type="line"/>
    </contour>
  </outline>
</glyph>
<glyph name="four.tab" format="2">
  <advance width="1923"/>
  <outline>
    <contour>
      <point x="59.0" y="405.0" type="line"/>
      <point x="40.0" y="500.0" type="line"/>
      <point x="1319.0" y="1532.0" type="line"/>
      <point x="1501.0" y="1457.0" type="line"/>
      <point x="1509.0" y="1407.0" type="line"/>
      <point x="1356.0" y="513.0" type="line"/>
      <point x="1351.0" y="486.0" type="line"/>
      <point x="1308.0" y="176.0" type="line"/>
      <point x="1308.0" y="43.0" type="line"/>
      <point x="886.0" y="-15.0" type="line"/>
      <point x="866.0" y="14.0" type="line"/>
      <point x="953.0" y="488.0" type="line"/>
      <point x="961.0" y="513.0" type="line"/>
      <point x="1072.0" y="1129.0" type="line"/>
      <point x="262.0" y="577.0" type="line"/>
      <point x="266.0" y="567.0" type="line"/>
      <point x="1186.0" y="560.0" type="line"/>
      <point x="1591.0" y="560.0" type="line"/>
      <point x="1559.0" y="404.0" type="line"/>
      <point x="1175.0" y="398.0" type="line"/>
    </contour>
  </outline>
</glyph>
<glyph name="horizontalbarH" format="2">
  <advance width="2483"/>
  <outline>
    <contour>
      <point x="2353.0" y="1160.0" type="line"/>
      <point x="705.0" y="1160.0" type="line"/>
      <point x="705.0" y="1160.0" type="line"/>
      <point x="682.0" y="1160.0" type="line"/>
      <point x="688.0" y="1176.0" type="line"/>
      <point x="711.0" y="1176.0" type="line"/>
      <point x="711.0" y="1176.0" type="line"/>
      <point x="2362.0" y="1176.0" type="line"/>
    </contour>
    <contour>
      <point x="199.0" y="1160.0" type="line"/>
      <point x="196.0" y="1176.0" type="line"/>
      <point x="668.0" y="1176.0" type="line"/>
      <point x="668.0" y="1176.0" type="line"/>
      <point x="688.0" y="1176.0" type="line"/>
      <point x="682.0" y="1160.0" type="line"/>
      <point x="662.0" y="1160.0" type="line"/>
      <point x="662.0" y="1160.0" type="line"/>
    </contour>
  </outline>
</glyph>
<glyph name="macronbelowcomb" format="2">
  <advance width="896"/>
  <outline>
    <contour>
      <point x="-173.0" y="-419.0" type="line"/>
      <point x="-126.0" y="-280.0" type="line"/>
      <point x="648.0" y="-280.0" type="line"/>
      <point x="601.0" y="-419.0" type="line"/>
    </contour>
  </outline>
</glyph>
<glyph name="nine.lc" format="2">
  <advance width="1628"/>
  <outline>
    <contour>
      <point x="1501.0" y="429.0" type="qcurve" smooth="yes"/>
      <point x="1481.0" y="90.0"/>
      <point x="696.0" y="-366.0"/>
      <point x="102.0" y="-423.0" type="qcurve"/>
      <point x="78.0" y="-347.0" type="line"/>
      <point x="501.0" y="-266.0"/>
      <point x="1028.0" y="132.0"/>
      <point x="1058.0" y="453.0" type="qcurve" smooth="yes"/>
      <point x="1071.0" y="644.0"/>
      <point x="946.0" y="833.0"/>
      <point x="843.0" y="840.0" type="qcurve" smooth="yes"/>
      <point x="691.0" y="848.0"/>
      <point x="489.0" y="694.0"/>
      <point x="467.0" y="523.0" type="qcurve" smooth="yes"/>
      <point x="456.0" y="425.0"/>
      <point x="560.0" y="286.0"/>
      <point x="670.0" y="286.0" type="qcurve" smooth="yes"/>
      <point x="713.0" y="286.0"/>
      <point x="792.0" y="306.0"/>
      <point x="840.0" y="334.0" type="qcurve"/>
      <point x="850.0" y="272.0" type="line"/>
      <point x="800.0" y="236.0"/>
      <point x="616.0" y="154.0"/>
      <point x="497.0" y="154.0" type="qcurve" smooth="yes"/>
      <point x="264.0" y="154.0"/>
      <point x="48.0" y="353.0"/>
      <point x="61.0" y="494.0" type="qcurve" smooth="yes"/>
      <point x="82.0" y="686.0"/>
      <point x="521.0" y="910.0"/>
      <point x="862.0" y="910.0" type="qcurve" smooth="yes"/>
      <point x="1185.0" y="910.0"/>
      <point x="1514.0" y="650.0"/>
    </contour>
  </outline>
</glyph>
<glyph name="ogonekcomb.case" format="2">
  <advance width="896"/>
  <outline>
    <contour>
      <point x="342.0" y="-209.0" type="qcurve" smooth="yes"/>
      <point x="348.0" y="-271.0"/>
      <point x="447.0" y="-335.0"/>
      <point x="516.0" y="-335.0" type="qcurve" smooth="yes"/>
      <point x="591.0" y="-335.0"/>
      <point x="652.0" y="-301.0"/>
      <point x="713.0" y="-246.0" type="qcurve"/>
      <point x="741.0" y="-252.0" type="line"/>
      <point x="708.0" y="-310.0"/>
      <point x="541.0" y="-427.0"/>
      <point x="440.0" y="-427.0" type="qcurve" smooth="yes"/>
      <point x="309.0" y="-428.0"/>
      <point x="157.0" y="-351.0"/>
      <point x="169.0" y="-261.0" type="qcurve" smooth="yes"/>
      <point x="183.0" y="-134.0"/>
      <point x="323.0" y="-30.0"/>
      <point x="459.0" y="48.0" type="qcurve" smooth="yes"/>
      <point x="463.0" y="46.0" type="line"/>
      <point x="481.0" y="19.0" type="line"/>
      <point x="483.0" y="28.0" type="line" smooth="yes"/>
      <point x="382.0" y="-55.0"/>
      <point x="337.0" y="-158.0"/>
    </contour>
  </outline>
</glyph>
<glyph name="seven.lc" format="2">
  <advance width="1420"/>
  <outline>
    <contour>
      <point x="72.0" y="450.0" type="line"/>
      <point x="273.0" y="869.0" type="line"/>
      <point x="1349.0" y="869.0" type="line"/>
      <point x="1374.0" y="812.0" type="line"/>
      <point x="1055.0" y="403.0"/>
      <point x="662.0" y="-110.0"/>
      <point x="521.0" y="-374.0" type="qcurve"/>
      <point x="218.0" y="-428.0" type="line"/>
      <point x="176.0" y="-382.0" type="line"/>
      <point x="349.0" y="-108.0"/>
      <point x="740.0" y="257.0"/>
      <point x="1027.0" y="591.0" type="qcurve"/>
      <point x="1013.0" y="609.0" type="line"/>
      <point x="308.0" y="609.0" type="line"/>
      <point x="178.0" y="450.0" type="line"/>
    </contour>
  </outline>
</glyph>
<glyph name="six.lc" format="2">
  <advance width="1628"/>
  <outline>
    <contour>
      <point x="61.0" y="450.0" type="qcurve" smooth="yes"/>
      <point x="75.0" y="788.0"/>
      <point x="891.0" y="1264.0"/>
      <point x="1441.0" y="1312.0" type="qcurve"/>
      <point x="1451.0" y="1233.0" type="line"/>
      <point x="1040.0" y="1162.0"/>
      <point x="525.0" y="724.0"/>
      <point x="506.0" y="426.0" type="qcurve" smooth="yes"/>
      <point x="495.0" y="235.0"/>
      <point x="623.0" y="46.0"/>
      <point x="739.0" y="38.0" type="qcurve" smooth="yes"/>
      <point x="902.0" y="30.0"/>
      <point x="1079.0" y="200.0"/>
      <point x="1096.0" y="387.0" type="qcurve" smooth="yes"/>
      <point x="1105.0" y="495.0"/>
      <point x="989.0" y="634.0"/>
      <point x="879.0" y="634.0" type="qcurve" smooth="yes"/>
      <point x="836.0" y="634.0"/>
      <point x="758.0" y="615.0"/>
      <point x="711.0" y="587.0" type="qcurve"/>
      <point x="698.0" y="649.0" type="line"/>
      <point x="745.0" y="685.0"/>
      <point x="926.0" y="767.0"/>
      <point x="1045.0" y="767.0" type="qcurve" smooth="yes"/>
      <point x="1280.0" y="767.0"/>
      <point x="1514.0" y="567.0"/>
      <point x="1505.0" y="416.0" type="qcurve" smooth="yes"/>
      <point x="1494.0" y="201.0"/>
      <point x="1059.0" y="-28.0"/>
      <point x="717.0" y="-28.0" type="qcurve" smooth="yes"/>
      <point x="394.0" y="-28.0"/>
      <point x="51.0" y="229.0"/>
    </contour>
  </outline>
</glyph>
<glyph name="three.tab" format="2">
  <advance width="1923"/>
  <outline>
    <contour>
      <point x="104.0" y="258.0" type="qcurve" smooth="yes"/>
      <point x="104.0" y="303.0"/>
      <point x="189.0" y="375.0"/>
      <point x="222.0" y="362.0" type="qcurve"/>
      <point x="265.0" y="361.0" type="line"/>
      <point x="260.6000131403837" y="348.2001576846038"/>
      <point x="258.0" y="324.05970149253733"/>
      <point x="258.0" y="279.0" type="qcurve" smooth="yes"/>
      <point x="258.0" y="201.0"/>
      <point x="440.0" y="76.0"/>
      <point x="586.0" y="76.0" type="qcurve" smooth="yes"/>
      <point x="763.0" y="76.0"/>
      <point x="1032.0" y="272.0"/>
      <point x="1032.0" y="472.0" type="qcurve" smooth="yes"/>
      <point x="1032.0" y="622.0"/>
      <point x="840.0" y="768.0"/>
      <point x="656.0" y="769.0" type="qcurve" smooth="yes"/>
      <point x="534.0" y="772.0" type="line"/>
      <point x="537.0" y="847.0" type="line"/>
      <point x="617.0" y="845.0" type="line" smooth="yes"/>
      <point x="820.0" y="840.0"/>
      <point x="1094.0" y="1030.0"/>
      <point x="1094.0" y="1147.0" type="qcurve" smooth="yes"/>
      <point x="1094.0" y="1222.0"/>
      <point x="962.0" y="1334.0"/>
      <point x="838.0" y="1334.0" type="qcurve" smooth="yes"/>
      <point x="759.0" y="1334.0"/>
      <point x="484.0" y="1230.0"/>
      <point x="423.0" y="1161.0" type="qcurve"/>
      <point x="401.0" y="1261.0" type="line"/>
      <point x="476.0" y="1363.0"/>
      <point x="754.0" y="1505.0"/>
      <point x="984.0" y="1504.0" type="qcurve" smooth="yes"/>
      <point x="1255.0" y="1503.0"/>
      <point x="1495.0" y="1353.0"/>
      <point x="1495.0" y="1224.0" type="qcurve" smooth="yes"/>
      <point x="1495.0" y="1074.0"/>
      <point x="1224.0" y="873.0"/>
      <point x="1012.0" y="826.0" type="qcurve"/>
      <point x="1011.0" y="819.0" type="line"/>
      <point x="1212.0" y="800.0"/>
      <point x="1433.0" y="585.0"/>
      <point x="1433.0" y="443.0" type="qcurve" smooth="yes"/>
      <point x="1433.0" y="257.0"/>
      <point x="1005.0" y="-2.0"/>
      <point x="624.0" y="-2.0" type="qcurve" smooth="yes"/>
      <point x="350.0" y="-2.0"/>
      <point x="104.0" y="169.0"/>
    </contour>
  </outline>
</glyph>
<glyph name="tildecomb.case" format="2">
  <advance width="896"/>
  <outline>
    <contour>
      <point x="161.0" y="1703.0" type="line"/>
      <point x="198.0" y="1776.0"/>
      <point x="312.0" y="1901.0"/>
      <point x="385.0" y="1901.0" type="qcurve" smooth="yes"/>
      <point x="425.0" y="1901.0"/>
      <point x="492.0" y="1867.0"/>
      <point x="536.0" y="1832.0" type="qcurve" smooth="yes"/>
      <point x="582.0" y="1793.0"/>
      <point x="652.0" y="1755.0"/>
      <point x="688.0" y="1755.0" type="qcurve" smooth="yes"/>
      <point x="736.0" y="1755.0"/>
      <point x="802.0" y="1791.0"/>
      <point x="826.0" y="1822.0" type="qcurve"/>
      <point x="821.0" y="1786.0" type="line"/>
      <point x="784.0" y="1705.0"/>
      <point x="680.0" y="1597.0"/>
      <point x="619.0" y="1597.0" type="qcurve" smooth="yes"/>
      <point x="574.0" y="1597.0"/>
      <point x="486.0" y="1655.0"/>
      <point x="459.0" y="1672.0" type="qcurve" smooth="yes"/>
      <point x="425.0" y="1696.0"/>
      <point x="351.0" y="1745.0"/>
      <point x="318.0" y="1745.0" type="qcurve" smooth="yes"/>
      <point x="282.0" y="1745.0"/>
      <point x="198.0" y="1699.0"/>
      <point x="164.0" y="1658.0" type="qcurve"/>
    </contour>
  </outline>
</glyph>
<glyph name="tildecombstack.case" format="2">
  <advance width="896"/>
  <outline>
    <contour>
      <point x="136.0" y="1718.0" type="line"/>
      <point x="177.0" y="1788.0"/>
      <point x="302.0" y="1907.0"/>
      <point x="378.0" y="1907.0" type="qcurve" smooth="yes"/>
      <point x="421.0" y="1907.0"/>
      <point x="491.0" y="1874.0"/>
      <point x="536.0" y="1841.0" type="qcurve" smooth="yes"/>
      <point x="583.0" y="1804.0"/>
      <point x="657.0" y="1769.0"/>
      <point x="696.0" y="1769.0" type="qcurve" smooth="yes"/>
      <point x="745.0" y="1769.0"/>
      <point x="817.0" y="1803.0"/>
      <point x="843.0" y="1832.0" type="qcurve"/>
      <point x="846.0" y="1807.0" type="line"/>
      <point x="805.0" y="1730.0"/>
      <point x="691.0" y="1627.0"/>
      <point x="628.0" y="1627.0" type="qcurve" smooth="yes"/>
      <point x="581.0" y="1627.0"/>
      <point x="486.0" y="1682.0"/>
      <point x="458.0" y="1698.0" type="qcurve" smooth="yes"/>
      <point x="424.0" y="1721.0"/>
      <point x="345.0" y="1767.0"/>
      <point x="312.0" y="1767.0" type="qcurve" smooth="yes"/>
      <point x="272.0" y="1767.0"/>
      <point x="182.0" y="1723.0"/>
      <point x="147.0" y="1684.0" type="qcurve"/>
    </contour>
  </outline>
</glyph>
